G04*
G04 #@! TF.GenerationSoftware,Altium Limited,Altium Designer,23.3.1 (30)*
G04*
G04 Layer_Color=32896*
%FSLAX44Y44*%
%MOMM*%
G71*
G04*
G04 #@! TF.SameCoordinates,8D2347DA-786F-44A1-B396-5F802EE38B7C*
G04*
G04*
G04 #@! TF.FilePolarity,Positive*
G04*
G01*
G75*
%ADD10C,0.2000*%
%ADD11C,0.2540*%
%ADD38C,0.3500*%
D10*
X339000Y207000D02*
Y231000D01*
X291000Y207000D02*
X339000D01*
X291000D02*
Y231000D01*
X339000D01*
X276000Y272000D02*
Y274000D01*
Y224000D02*
Y228000D01*
X272000Y224000D02*
X276000D01*
X224000D02*
X228000D01*
X224000D02*
Y228000D01*
Y272000D02*
Y276000D01*
X228000D01*
X272000D02*
X274000D01*
X276000Y274000D01*
X248000Y287000D02*
Y321000D01*
X268000D01*
Y287000D02*
Y321000D01*
X248000Y287000D02*
X268000D01*
X217000Y204500D02*
X237000D01*
X217000Y170500D02*
Y204500D01*
Y170500D02*
X237000D01*
Y204500D01*
X240000Y171000D02*
Y205000D01*
X260000D01*
Y171000D02*
Y205000D01*
X240000Y171000D02*
X260000D01*
X263000Y205000D02*
X283000D01*
X263000Y171000D02*
Y205000D01*
Y171000D02*
X283000D01*
Y205000D01*
X287000Y170000D02*
Y204000D01*
X307000D01*
Y170000D02*
Y204000D01*
X287000Y170000D02*
X307000D01*
X311000D02*
Y204000D01*
X331000D01*
Y170000D02*
Y204000D01*
X311000Y170000D02*
X331000D01*
X325500Y345000D02*
Y365000D01*
X291500D02*
X325500D01*
X291500Y345000D02*
Y365000D01*
Y345000D02*
X325500D01*
X328000Y326000D02*
Y337000D01*
X292000Y326500D02*
Y337500D01*
Y322000D02*
X328000D01*
X292000D02*
Y326500D01*
X328000Y322000D02*
Y326000D01*
X292000Y342000D02*
X328000D01*
X292000Y337500D02*
Y342000D01*
X328000Y337000D02*
Y342000D01*
Y293000D02*
Y304000D01*
X292000Y293500D02*
Y304500D01*
Y289000D02*
X328000D01*
X292000D02*
Y293500D01*
X328000Y289000D02*
Y293000D01*
X292000Y309000D02*
X328000D01*
X292000Y304500D02*
Y309000D01*
X328000Y304000D02*
Y309000D01*
Y263000D02*
Y274000D01*
X292000Y263500D02*
Y274500D01*
Y259000D02*
X328000D01*
X292000D02*
Y263500D01*
X328000Y259000D02*
Y263000D01*
X292000Y279000D02*
X328000D01*
X292000Y274500D02*
Y279000D01*
X328000Y274000D02*
Y279000D01*
Y251000D02*
Y256000D01*
X292000Y251500D02*
Y256000D01*
X328000D01*
Y236000D02*
Y240000D01*
X292000Y236000D02*
Y240500D01*
Y236000D02*
X328000D01*
X292000Y240500D02*
Y251500D01*
X328000Y240000D02*
Y251000D01*
X246000Y326000D02*
Y346000D01*
Y326000D02*
X280000D01*
Y346000D01*
X246000D02*
X280000D01*
X246000Y350000D02*
Y370000D01*
Y350000D02*
X280000D01*
Y370000D01*
X246000D02*
X280000D01*
X246000Y373000D02*
Y393000D01*
Y373000D02*
X280000D01*
Y393000D01*
X246000D02*
X280000D01*
Y396000D02*
Y416000D01*
X246000D02*
X280000D01*
X246000Y396000D02*
Y416000D01*
Y396000D02*
X280000D01*
X205000Y254000D02*
Y259000D01*
X169000Y254500D02*
Y259000D01*
X205000D01*
Y239000D02*
Y243000D01*
X169000Y239000D02*
Y243500D01*
Y239000D02*
X205000D01*
X169000Y243500D02*
Y254500D01*
X205000Y243000D02*
Y254000D01*
X162000Y190000D02*
Y201000D01*
X198000Y189500D02*
Y200500D01*
X162000Y205000D02*
X198000D01*
Y200500D02*
Y205000D01*
X162000Y201000D02*
Y205000D01*
Y185000D02*
X198000D01*
Y189500D01*
X162000Y185000D02*
Y190000D01*
X163500Y228000D02*
X197500D01*
Y208000D02*
Y228000D01*
X163500Y208000D02*
X197500D01*
X163500D02*
Y228000D01*
X171000Y265000D02*
X205000D01*
X171000D02*
Y285000D01*
X205000D01*
Y265000D02*
Y285000D01*
X206000Y292000D02*
Y303000D01*
X170000Y292500D02*
Y303500D01*
Y288000D02*
X206000D01*
X170000D02*
Y292500D01*
X206000Y288000D02*
Y292000D01*
X170000Y308000D02*
X206000D01*
X170000Y303500D02*
Y308000D01*
X206000Y303000D02*
Y308000D01*
X153000Y285000D02*
Y305000D01*
X119000D02*
X153000D01*
X119000Y285000D02*
Y305000D01*
Y285000D02*
X153000D01*
X118500Y308000D02*
Y328000D01*
Y308000D02*
X152500D01*
Y328000D01*
X118500D02*
X152500D01*
X152000Y332000D02*
Y352000D01*
X118000D02*
X152000D01*
X118000Y332000D02*
Y352000D01*
Y332000D02*
X152000D01*
X153000Y238000D02*
Y258000D01*
X119000D02*
X153000D01*
X119000Y238000D02*
Y258000D01*
Y238000D02*
X153000D01*
X119000Y262000D02*
Y282000D01*
Y262000D02*
X153000D01*
Y282000D01*
X119000D02*
X153000D01*
X283000Y264000D02*
X280001D01*
X281500D01*
Y272997D01*
X283000Y271498D01*
D11*
X364279Y225342D02*
X366818Y227881D01*
X371897D01*
X374436Y225342D01*
Y215185D01*
X371897Y212646D01*
X366818D01*
X364279Y215185D01*
X359201Y212646D02*
X354123D01*
X356662D01*
Y227881D01*
X359201Y225342D01*
X236157Y298617D02*
Y285922D01*
X233617Y283382D01*
X228539D01*
X226000Y285922D01*
Y298617D01*
X220922Y283382D02*
X215843D01*
X218382D01*
Y298617D01*
X220922Y296078D01*
X236696Y304632D02*
Y319867D01*
X229078D01*
X226539Y317328D01*
Y312250D01*
X229078Y309711D01*
X236696D01*
X231618D02*
X226539Y304632D01*
X211304Y319867D02*
X216383Y317328D01*
X221461Y312250D01*
Y307172D01*
X218922Y304632D01*
X213843D01*
X211304Y307172D01*
Y309711D01*
X213843Y312250D01*
X221461D01*
X220382Y122956D02*
X235618D01*
Y130574D01*
X233078Y133113D01*
X228000D01*
X225461Y130574D01*
Y122956D01*
Y128034D02*
X220382Y133113D01*
Y138191D02*
Y143270D01*
Y140730D01*
X235618D01*
X233078Y138191D01*
X220382Y150887D02*
Y155965D01*
Y153426D01*
X235618D01*
X233078Y150887D01*
X241383Y122956D02*
X256618D01*
Y130574D01*
X254078Y133113D01*
X249000D01*
X246461Y130574D01*
Y122956D01*
Y128034D02*
X241383Y133113D01*
X256618Y138191D02*
Y148348D01*
X254078D01*
X243922Y138191D01*
X241383D01*
X267383Y122956D02*
X282617D01*
Y130574D01*
X280078Y133113D01*
X275000D01*
X272461Y130574D01*
Y122956D01*
Y128034D02*
X267383Y133113D01*
Y138191D02*
Y143270D01*
Y140730D01*
X282617D01*
X280078Y138191D01*
Y150887D02*
X282617Y153426D01*
Y158505D01*
X280078Y161044D01*
X277539D01*
X275000Y158505D01*
Y155965D01*
Y158505D01*
X272461Y161044D01*
X269922D01*
X267383Y158505D01*
Y153426D01*
X269922Y150887D01*
X290382Y122956D02*
X305618D01*
Y130574D01*
X303078Y133113D01*
X298000D01*
X295461Y130574D01*
Y122956D01*
Y128034D02*
X290382Y133113D01*
Y138191D02*
Y143270D01*
Y140730D01*
X305618D01*
X303078Y138191D01*
X305618Y150887D02*
Y161044D01*
X303078D01*
X292922Y150887D01*
X290382D01*
X314382Y122956D02*
X329618D01*
Y130574D01*
X327078Y133113D01*
X322000D01*
X319461Y130574D01*
Y122956D01*
Y128034D02*
X314382Y133113D01*
Y138191D02*
Y143270D01*
Y140730D01*
X329618D01*
X327078Y138191D01*
X314382Y161044D02*
Y150887D01*
X324539Y161044D01*
X327078D01*
X329618Y158505D01*
Y153426D01*
X327078Y150887D01*
X374436Y346504D02*
Y361739D01*
X366818D01*
X364279Y359200D01*
Y354122D01*
X366818Y351582D01*
X374436D01*
X369358D02*
X364279Y346504D01*
X359201Y359200D02*
X356662Y361739D01*
X351583D01*
X349044Y359200D01*
Y356661D01*
X351583Y354122D01*
X349044Y351582D01*
Y349043D01*
X351583Y346504D01*
X356662D01*
X359201Y349043D01*
Y351582D01*
X356662Y354122D01*
X359201Y356661D01*
Y359200D01*
X356662Y354122D02*
X351583D01*
X364279Y336340D02*
X366818Y338879D01*
X371897D01*
X374436Y336340D01*
Y326183D01*
X371897Y323644D01*
X366818D01*
X364279Y326183D01*
X359201Y323644D02*
X354123D01*
X356662D01*
Y338879D01*
X359201Y336340D01*
X336348Y323644D02*
X346505D01*
X336348Y333801D01*
Y336340D01*
X338887Y338879D01*
X343966D01*
X346505Y336340D01*
X364279Y303320D02*
X366818Y305859D01*
X371897D01*
X374436Y303320D01*
Y293163D01*
X371897Y290624D01*
X366818D01*
X364279Y293163D01*
X351583Y290624D02*
Y305859D01*
X359201Y298242D01*
X349044D01*
X364279Y273348D02*
X366818Y275887D01*
X371897D01*
X374436Y273348D01*
Y263191D01*
X371897Y260652D01*
X366818D01*
X364279Y263191D01*
X359201Y260652D02*
X354123D01*
X356662D01*
Y275887D01*
X359201Y273348D01*
X346505Y260652D02*
X341427D01*
X343966D01*
Y275887D01*
X346505Y273348D01*
X364279Y250234D02*
X366818Y252773D01*
X371897D01*
X374436Y250234D01*
Y240077D01*
X371897Y237538D01*
X366818D01*
X364279Y240077D01*
X349044Y237538D02*
X359201D01*
X349044Y247695D01*
Y250234D01*
X351583Y252773D01*
X356662D01*
X359201Y250234D01*
X235508Y326708D02*
Y341943D01*
X227890D01*
X225351Y339404D01*
Y334325D01*
X227890Y331786D01*
X235508D01*
X230430D02*
X225351Y326708D01*
X220273D02*
X215195D01*
X217734D01*
Y341943D01*
X220273Y339404D01*
X199960Y326708D02*
Y341943D01*
X207577Y334325D01*
X197420D01*
X235508Y350584D02*
Y365819D01*
X227890D01*
X225351Y363280D01*
Y358201D01*
X227890Y355662D01*
X235508D01*
X230430D02*
X225351Y350584D01*
X220273D02*
X215195D01*
X217734D01*
Y365819D01*
X220273Y363280D01*
X197420Y365819D02*
X202499Y363280D01*
X207577Y358201D01*
Y353123D01*
X205038Y350584D01*
X199960D01*
X197420Y353123D01*
Y355662D01*
X199960Y358201D01*
X207577D01*
X235508Y373698D02*
Y388933D01*
X227890D01*
X225351Y386394D01*
Y381315D01*
X227890Y378776D01*
X235508D01*
X230430D02*
X225351Y373698D01*
X220273D02*
X215195D01*
X217734D01*
Y388933D01*
X220273Y386394D01*
X197420Y388933D02*
X207577D01*
Y381315D01*
X202499Y383855D01*
X199960D01*
X197420Y381315D01*
Y376237D01*
X199960Y373698D01*
X205038D01*
X207577Y376237D01*
X235508Y396558D02*
Y411793D01*
X227890D01*
X225351Y409254D01*
Y404175D01*
X227890Y401636D01*
X235508D01*
X230430D02*
X225351Y396558D01*
X220273D02*
X215195D01*
X217734D01*
Y411793D01*
X220273Y409254D01*
X207577D02*
X205038Y411793D01*
X199960D01*
X197420Y409254D01*
Y406715D01*
X199960Y404175D01*
X197420Y401636D01*
Y399097D01*
X199960Y396558D01*
X205038D01*
X207577Y399097D01*
Y401636D01*
X205038Y404175D01*
X207577Y406715D01*
Y409254D01*
X205038Y404175D02*
X199960D01*
X136539Y175869D02*
X139078Y178408D01*
X144157D01*
X146696Y175869D01*
Y165712D01*
X144157Y163173D01*
X139078D01*
X136539Y165712D01*
X131461Y175869D02*
X128922Y178408D01*
X123843D01*
X121304Y175869D01*
Y173330D01*
X123843Y170791D01*
X126383D01*
X123843D01*
X121304Y168251D01*
Y165712D01*
X123843Y163173D01*
X128922D01*
X131461Y165712D01*
X135539Y125078D02*
X138078Y127618D01*
X143157D01*
X145696Y125078D01*
Y114922D01*
X143157Y112382D01*
X138078D01*
X135539Y114922D01*
X130461Y127618D02*
X120304D01*
Y125078D01*
X130461Y114922D01*
Y112382D01*
X146696Y137382D02*
Y152618D01*
X139078D01*
X136539Y150078D01*
Y145000D01*
X139078Y142461D01*
X146696D01*
X141617D02*
X136539Y137382D01*
X123843D02*
Y152618D01*
X131461Y145000D01*
X121304D01*
X146696Y188382D02*
Y203617D01*
X139078D01*
X136539Y201078D01*
Y196000D01*
X139078Y193461D01*
X146696D01*
X141617D02*
X136539Y188382D01*
X121304Y203617D02*
X131461D01*
Y196000D01*
X126383Y198539D01*
X123843D01*
X121304Y196000D01*
Y190922D01*
X123843Y188382D01*
X128922D01*
X131461Y190922D01*
X137539Y227078D02*
X140078Y229618D01*
X145157D01*
X147696Y227078D01*
Y216922D01*
X145157Y214382D01*
X140078D01*
X137539Y216922D01*
X132461Y227078D02*
X129922Y229618D01*
X124843D01*
X122304Y227078D01*
Y224539D01*
X124843Y222000D01*
X122304Y219461D01*
Y216922D01*
X124843Y214382D01*
X129922D01*
X132461Y216922D01*
Y219461D01*
X129922Y222000D01*
X132461Y224539D01*
Y227078D01*
X129922Y222000D02*
X124843D01*
X104696Y287383D02*
Y302617D01*
X97078D01*
X94539Y300078D01*
Y295000D01*
X97078Y292461D01*
X104696D01*
X99618D02*
X94539Y287383D01*
X89461Y300078D02*
X86922Y302617D01*
X81843D01*
X79304Y300078D01*
Y297539D01*
X81843Y295000D01*
X84382D01*
X81843D01*
X79304Y292461D01*
Y289922D01*
X81843Y287383D01*
X86922D01*
X89461Y289922D01*
X103696Y312383D02*
Y327617D01*
X96078D01*
X93539Y325078D01*
Y320000D01*
X96078Y317461D01*
X103696D01*
X98617D02*
X93539Y312383D01*
X88461Y314922D02*
X85922Y312383D01*
X80843D01*
X78304Y314922D01*
Y325078D01*
X80843Y327617D01*
X85922D01*
X88461Y325078D01*
Y322539D01*
X85922Y320000D01*
X78304D01*
X108044Y334383D02*
Y349618D01*
X100426D01*
X97887Y347078D01*
Y342000D01*
X100426Y339461D01*
X108044D01*
X102965D02*
X97887Y334383D01*
X92809D02*
X87730D01*
X90270D01*
Y349618D01*
X92809Y347078D01*
X80113D02*
X77574Y349618D01*
X72495D01*
X69956Y347078D01*
Y336922D01*
X72495Y334383D01*
X77574D01*
X80113Y336922D01*
Y347078D01*
X103157Y240382D02*
Y255618D01*
X95539D01*
X93000Y253078D01*
Y248000D01*
X95539Y245461D01*
X103157D01*
X98078D02*
X93000Y240382D01*
X87922D02*
X82843D01*
X85382D01*
Y255618D01*
X87922Y253078D01*
X106696Y263382D02*
Y278617D01*
X99078D01*
X96539Y276078D01*
Y271000D01*
X99078Y268461D01*
X106696D01*
X101617D02*
X96539Y263382D01*
X81304D02*
X91461D01*
X81304Y273539D01*
Y276078D01*
X83843Y278617D01*
X88922D01*
X91461Y276078D01*
D38*
X406500Y463493D02*
X399836D01*
X403168D01*
Y443500D01*
X406500D01*
X399836D01*
X376510Y460161D02*
X379842Y463493D01*
X386507D01*
X389839Y460161D01*
Y456829D01*
X386507Y453497D01*
X379842D01*
X376510Y450164D01*
Y446832D01*
X379842Y443500D01*
X386507D01*
X389839Y446832D01*
X369845Y463493D02*
Y443500D01*
X356516D01*
X336523Y463493D02*
X343187Y460161D01*
X349852Y453497D01*
Y446832D01*
X346519Y443500D01*
X339855D01*
X336523Y446832D01*
Y450164D01*
X339855Y453497D01*
X349852D01*
X316529Y443500D02*
X329858D01*
X316529Y456829D01*
Y460161D01*
X319861Y463493D01*
X326526D01*
X329858Y460161D01*
X309865D02*
X306532Y463493D01*
X299868D01*
X296535Y460161D01*
Y456829D01*
X299868Y453497D01*
X303200D01*
X299868D01*
X296535Y450164D01*
Y446832D01*
X299868Y443500D01*
X306532D01*
X309865Y446832D01*
X276542Y463493D02*
X283206Y460161D01*
X289871Y453497D01*
Y446832D01*
X286539Y443500D01*
X279874D01*
X276542Y446832D01*
Y450164D01*
X279874Y453497D01*
X289871D01*
X269877Y443500D02*
Y456829D01*
X263213Y463493D01*
X256548Y456829D01*
Y443500D01*
Y453497D01*
X269877D01*
X229890Y463493D02*
Y443500D01*
X219893D01*
X216561Y446832D01*
Y460161D01*
X219893Y463493D01*
X229890D01*
X196568D02*
X209897D01*
Y443500D01*
X196568D01*
X209897Y453497D02*
X203232D01*
X189903Y443500D02*
Y463493D01*
X183239Y456829D01*
X176574Y463493D01*
Y443500D01*
X159913Y463493D02*
X166577D01*
X169910Y460161D01*
Y446832D01*
X166577Y443500D01*
X159913D01*
X156581Y446832D01*
Y460161D01*
X159913Y463493D01*
X129923D02*
Y450164D01*
X123258Y443500D01*
X116593Y450164D01*
Y463493D01*
X109929Y443500D02*
X103264D01*
X106597D01*
Y463493D01*
X109929Y460161D01*
X93268Y463493D02*
X86603D01*
X89935D01*
Y443500D01*
X93268D01*
X86603D01*
X76606D02*
X69942D01*
X73274D01*
Y463493D01*
X76606Y460161D01*
M02*
