G04*
G04 #@! TF.GenerationSoftware,Altium Limited,Altium Designer,23.3.1 (30)*
G04*
G04 Layer_Physical_Order=5*
G04 Layer_Color=128*
%FSLAX44Y44*%
%MOMM*%
G71*
G04*
G04 #@! TF.SameCoordinates,8D2347DA-786F-44A1-B396-5F802EE38B7C*
G04*
G04*
G04 #@! TF.FilePolarity,Negative*
G04*
G01*
G75*
%ADD25C,1.0160*%
%ADD26C,2.5160*%
G04:AMPARAMS|DCode=27|XSize=3.516mm|YSize=3.516mm|CornerRadius=0mm|HoleSize=0mm|Usage=FLASHONLY|Rotation=0.000|XOffset=0mm|YOffset=0mm|HoleType=Round|Shape=Relief|Width=1mm|Gap=0.5mm|Entries=4|*
%AMTHD27*
7,0,0,3.5160,2.5160,1.0000,45*
%
%ADD27THD27*%
%ADD28C,1.3160*%
D25*
X250000Y0D02*
X500000D01*
X0D02*
X250000D01*
X0D02*
Y500000D01*
X500000D01*
Y0D02*
Y500000D01*
D26*
X46000Y288000D02*
D03*
X450000Y140000D02*
D03*
Y360000D02*
D03*
D27*
Y200000D02*
D03*
Y300000D02*
D03*
X46000Y199000D02*
D03*
D28*
X227000Y169250D02*
D03*
X189750Y179500D02*
D03*
X104000Y409000D02*
D03*
X258000Y286000D02*
D03*
X311000Y256000D02*
D03*
X198000Y312000D02*
D03*
X295000Y367000D02*
D03*
X299000Y234000D02*
D03*
X105500Y288500D02*
D03*
X107000Y303000D02*
D03*
X288000Y306000D02*
D03*
X306000Y314000D02*
D03*
X373000Y135000D02*
D03*
X231000Y214000D02*
D03*
X190000Y233000D02*
D03*
X216000Y251000D02*
D03*
X134565Y370950D02*
D03*
X217000Y261000D02*
D03*
X249000Y206000D02*
D03*
X138000Y131000D02*
D03*
X190000D02*
D03*
X273000Y170000D02*
D03*
X192000Y371000D02*
D03*
X213000Y303000D02*
D03*
X222000Y286000D02*
D03*
X341000Y198000D02*
D03*
X136000Y169000D02*
D03*
X112000Y248000D02*
D03*
X109000Y341000D02*
D03*
X352000Y365000D02*
D03*
X282000Y360000D02*
D03*
X107500Y318000D02*
D03*
M02*
