G04*
G04 #@! TF.GenerationSoftware,Altium Limited,Altium Designer,23.3.1 (30)*
G04*
G04 Layer_Color=16711935*
%FSLAX44Y44*%
%MOMM*%
G71*
G04*
G04 #@! TF.SameCoordinates,8D2347DA-786F-44A1-B396-5F802EE38B7C*
G04*
G04*
G04 #@! TF.FilePolarity,Negative*
G04*
G01*
G75*
%ADD21C,4.2032*%
%ADD40R,1.1032X1.8032*%
%ADD41R,3.4016X3.4016*%
%ADD42R,0.7016X0.3316*%
%ADD43R,0.3316X0.7016*%
%ADD44R,1.5032X0.9032*%
%ADD45R,0.9032X1.5032*%
%ADD46R,1.1032X1.5032*%
D21*
X46000Y288000D02*
D03*
X450000Y200000D02*
D03*
Y140000D02*
D03*
Y300000D02*
D03*
Y360000D02*
D03*
X46000Y199000D02*
D03*
D40*
X299500Y219000D02*
D03*
X330500D02*
D03*
D41*
X250000Y250000D02*
D03*
D42*
X274000Y267500D02*
D03*
Y262500D02*
D03*
Y257500D02*
D03*
Y252500D02*
D03*
Y247500D02*
D03*
Y242500D02*
D03*
Y237500D02*
D03*
Y232500D02*
D03*
X226000D02*
D03*
Y237500D02*
D03*
Y242500D02*
D03*
Y247500D02*
D03*
Y252500D02*
D03*
Y257500D02*
D03*
Y262500D02*
D03*
Y267500D02*
D03*
D43*
X267500Y226000D02*
D03*
X262500D02*
D03*
X257500D02*
D03*
X252500D02*
D03*
X247500D02*
D03*
X242500D02*
D03*
X237500D02*
D03*
X232500D02*
D03*
Y274000D02*
D03*
X237500D02*
D03*
X242500D02*
D03*
X247500D02*
D03*
X252500D02*
D03*
X257500D02*
D03*
X262500D02*
D03*
X267500D02*
D03*
D44*
X258000Y313500D02*
D03*
Y294500D02*
D03*
X227000Y197000D02*
D03*
Y178000D02*
D03*
X250000Y178500D02*
D03*
Y197500D02*
D03*
X273000Y178500D02*
D03*
Y197500D02*
D03*
X297000Y196500D02*
D03*
Y177500D02*
D03*
X321000Y196500D02*
D03*
Y177500D02*
D03*
D45*
X318000Y355000D02*
D03*
X299000D02*
D03*
X253500Y336000D02*
D03*
X272500D02*
D03*
X253500Y360000D02*
D03*
X272500D02*
D03*
Y383000D02*
D03*
X253500D02*
D03*
X253500Y406000D02*
D03*
X272500D02*
D03*
X171000Y218000D02*
D03*
X190000D02*
D03*
X178500Y275000D02*
D03*
X197500D02*
D03*
X126500Y295000D02*
D03*
X145500D02*
D03*
X145000Y318000D02*
D03*
X126000D02*
D03*
X144500Y342000D02*
D03*
X125500D02*
D03*
X126500Y248000D02*
D03*
X145500D02*
D03*
X145500Y272000D02*
D03*
X126500D02*
D03*
D46*
X300500Y332000D02*
D03*
X319500D02*
D03*
X300500Y299000D02*
D03*
X319500D02*
D03*
X300500Y269000D02*
D03*
X319500D02*
D03*
Y246000D02*
D03*
X300500D02*
D03*
X196500Y249000D02*
D03*
X177500D02*
D03*
X189500Y195000D02*
D03*
X170500D02*
D03*
X178500Y298000D02*
D03*
X197500D02*
D03*
M02*
