G04*
G04 #@! TF.GenerationSoftware,Altium Limited,Altium Designer,23.3.1 (30)*
G04*
G04 Layer_Physical_Order=1*
G04 Layer_Color=255*
%FSLAX44Y44*%
%MOMM*%
G71*
G04*
G04 #@! TF.SameCoordinates,8D2347DA-786F-44A1-B396-5F802EE38B7C*
G04*
G04*
G04 #@! TF.FilePolarity,Positive*
G04*
G01*
G75*
%ADD10C,0.2000*%
%ADD11C,0.2540*%
%ADD12R,2.1000X0.6000*%
%ADD13R,0.9000X2.5000*%
%ADD14R,3.8500X5.8000*%
%ADD15R,2.5500X3.7500*%
%ADD22C,0.5000*%
%ADD23C,4.0000*%
%ADD24C,0.6000*%
G36*
X193000Y420000D02*
X185197D01*
X185000Y420039D01*
X168000D01*
Y454000D01*
X193000D01*
Y420000D01*
D02*
G37*
G36*
X160000Y433000D02*
Y418000D01*
X185000D01*
X190000Y413000D01*
Y403039D01*
X164000D01*
X163803Y403000D01*
X145000D01*
X144259Y413000D01*
X140457Y419023D01*
X134384Y422875D01*
X125000Y423000D01*
X65000Y423000D01*
X66355Y325034D01*
X287966D01*
X301711Y311289D01*
X301761Y311168D01*
X303168Y309761D01*
X303289Y309711D01*
X320000Y293000D01*
Y227000D01*
X280000D01*
Y293000D01*
X278725Y291992D01*
X155000D01*
Y276000D01*
X197956Y236222D01*
X198185Y167456D01*
X196773Y166039D01*
X188496D01*
X186500Y166050D01*
X186500Y167780D01*
X165500D01*
Y166050D01*
X163505Y166039D01*
X160000D01*
Y198000D01*
X160000Y214364D01*
X123077Y258000D01*
X20000D01*
Y433000D01*
X45000Y458000D01*
X160000D01*
Y433000D01*
D02*
G37*
G36*
X135000Y376000D02*
X105000D01*
X105000Y350000D01*
X77500D01*
X72000Y353667D01*
Y392000D01*
X84000Y404000D01*
X135000D01*
Y376000D01*
D02*
G37*
G36*
X246500Y337750D02*
X198730D01*
X159750Y370579D01*
Y400961D01*
X163803D01*
X164000Y401000D01*
X164201D01*
X246500D01*
Y337750D01*
D02*
G37*
G36*
X346000Y383000D02*
X474000D01*
Y337000D01*
X301000D01*
Y403000D01*
X346000D01*
Y383000D01*
D02*
G37*
G36*
X404000Y274000D02*
X355000D01*
Y324000D01*
X365202D01*
X365250Y322750D01*
X365250Y322730D01*
Y317789D01*
X363980Y317263D01*
X363699Y317543D01*
X363270Y317721D01*
Y315000D01*
Y312279D01*
X363699Y312457D01*
X363980Y312737D01*
X365250Y312211D01*
Y305270D01*
X378000D01*
X390750D01*
Y322730D01*
X390750Y322750D01*
X390798Y324000D01*
X404000D01*
Y274000D01*
D02*
G37*
G36*
X404000Y196000D02*
X355000D01*
Y251000D01*
X404000D01*
Y196000D01*
D02*
G37*
G36*
X157000Y214752D02*
Y184000D01*
X127000D01*
Y215000D01*
X156790D01*
X157000Y214752D01*
D02*
G37*
G36*
X247168Y163761D02*
X247500Y163624D01*
Y96000D01*
X194500D01*
X158500Y122000D01*
Y164000D01*
X196777D01*
X196777Y164000D01*
X196777Y164000D01*
X246929D01*
X247168Y163761D01*
D02*
G37*
G36*
X130000Y139000D02*
X105000D01*
Y110000D01*
X72500Y110000D01*
Y154500D01*
X80000Y162000D01*
X130000D01*
Y139000D01*
D02*
G37*
G36*
X454000Y161000D02*
X473000D01*
Y114000D01*
X349000D01*
Y96000D01*
X345000Y93000D01*
X299000D01*
Y162000D01*
X361000D01*
Y190000D01*
X362000Y191000D01*
X424000D01*
X454000Y161000D01*
D02*
G37*
%LPC*%
G36*
X187270Y445721D02*
Y444270D01*
X188721D01*
X188543Y444699D01*
X187699Y445543D01*
X187270Y445721D01*
D02*
G37*
G36*
X184730D02*
X184301Y445543D01*
X183457Y444699D01*
X183279Y444270D01*
X184730D01*
Y445721D01*
D02*
G37*
G36*
X179000Y452500D02*
X175770D01*
Y441270D01*
X179000D01*
Y452500D01*
D02*
G37*
G36*
X173230D02*
X170000D01*
Y441270D01*
X173230D01*
Y452500D01*
D02*
G37*
G36*
X188721Y441730D02*
X187270D01*
Y440279D01*
X187699Y440457D01*
X188543Y441301D01*
X188721Y441730D01*
D02*
G37*
G36*
X184730D02*
X183279D01*
X183457Y441301D01*
X184301Y440457D01*
X184730Y440279D01*
Y441730D01*
D02*
G37*
G36*
X187270Y437721D02*
Y436270D01*
X188721D01*
X188543Y436699D01*
X187699Y437543D01*
X187270Y437721D01*
D02*
G37*
G36*
X184730D02*
X184301Y437543D01*
X183457Y436699D01*
X183279Y436270D01*
X184730D01*
Y437721D01*
D02*
G37*
G36*
X188721Y433730D02*
X187270D01*
Y432279D01*
X187699Y432457D01*
X188543Y433301D01*
X188721Y433730D01*
D02*
G37*
G36*
X184730D02*
X183279D01*
X183457Y433301D01*
X184301Y432457D01*
X184730Y432279D01*
Y433730D01*
D02*
G37*
G36*
X179000Y438730D02*
X175770D01*
Y427500D01*
X179000D01*
Y438730D01*
D02*
G37*
G36*
X173230D02*
X170000D01*
Y427500D01*
X173230D01*
Y438730D01*
D02*
G37*
G36*
X187270Y428721D02*
Y427270D01*
X188721D01*
X188543Y427699D01*
X187699Y428543D01*
X187270Y428721D01*
D02*
G37*
G36*
X184730D02*
X184301Y428543D01*
X183457Y427699D01*
X183279Y427270D01*
X184730D01*
Y428721D01*
D02*
G37*
G36*
X188721Y424730D02*
X187270D01*
Y423279D01*
X187699Y423457D01*
X188543Y424301D01*
X188721Y424730D01*
D02*
G37*
G36*
X184730D02*
X183279D01*
X183457Y424301D01*
X184301Y423457D01*
X184730Y423279D01*
Y424730D01*
D02*
G37*
G36*
X148000Y452500D02*
X144770D01*
Y441270D01*
X148000D01*
Y452500D01*
D02*
G37*
G36*
X142230D02*
X139000D01*
Y441270D01*
X142230D01*
Y452500D01*
D02*
G37*
G36*
X148000Y438730D02*
X144770D01*
Y427500D01*
X148000D01*
Y438730D01*
D02*
G37*
G36*
X142230D02*
X139000D01*
Y427500D01*
X142230D01*
Y438730D01*
D02*
G37*
G36*
X186500Y412000D02*
X177270D01*
Y410270D01*
X186500D01*
Y412000D01*
D02*
G37*
G36*
X174730D02*
X165500D01*
Y410270D01*
X174730D01*
Y412000D01*
D02*
G37*
G36*
X186500Y407730D02*
X177270D01*
Y406000D01*
X186500D01*
Y407730D01*
D02*
G37*
G36*
X174730D02*
X165500D01*
Y406000D01*
X174730D01*
Y407730D01*
D02*
G37*
G36*
X108495Y323000D02*
X106505D01*
X104668Y322239D01*
X103261Y320832D01*
X102500Y318995D01*
Y317005D01*
X103261Y315168D01*
X104668Y313761D01*
X106505Y313000D01*
X108495D01*
X110332Y313761D01*
X111739Y315168D01*
X112500Y317005D01*
Y318995D01*
X111739Y320832D01*
X110332Y322239D01*
X108495Y323000D01*
D02*
G37*
G36*
X244995Y319000D02*
X243005D01*
X241168Y318239D01*
X239761Y316832D01*
X239000Y314995D01*
Y313005D01*
X239761Y311168D01*
X241168Y309761D01*
X243005Y309000D01*
X244995D01*
X246832Y309761D01*
X248239Y311168D01*
X249000Y313005D01*
Y314995D01*
X248239Y316832D01*
X246832Y318239D01*
X244995Y319000D01*
D02*
G37*
G36*
X198995Y317000D02*
X197005D01*
X195168Y316239D01*
X193761Y314832D01*
X193000Y312995D01*
Y311005D01*
X193761Y309168D01*
X195168Y307761D01*
X197005Y307000D01*
X198995D01*
X200832Y307761D01*
X202239Y309168D01*
X203000Y311005D01*
Y312995D01*
X202239Y314832D01*
X200832Y316239D01*
X198995Y317000D01*
D02*
G37*
G36*
X288995Y311000D02*
X287005D01*
X285168Y310239D01*
X283761Y308832D01*
X283000Y306995D01*
Y305005D01*
X283761Y303168D01*
X285168Y301761D01*
X287005Y301000D01*
X288995D01*
X290832Y301761D01*
X292239Y303168D01*
X293000Y305005D01*
Y306995D01*
X292239Y308832D01*
X290832Y310239D01*
X288995Y311000D01*
D02*
G37*
G36*
X213995Y308000D02*
X212005D01*
X210168Y307239D01*
X208761Y305832D01*
X208000Y303995D01*
Y302005D01*
X208761Y300168D01*
X210168Y298761D01*
X212005Y298000D01*
X213995D01*
X215832Y298761D01*
X217239Y300168D01*
X218000Y302005D01*
Y303995D01*
X217239Y305832D01*
X215832Y307239D01*
X213995Y308000D01*
D02*
G37*
G36*
X107995D02*
X106005D01*
X104168Y307239D01*
X102761Y305832D01*
X102000Y303995D01*
Y302005D01*
X102761Y300168D01*
X104168Y298761D01*
X106005Y298000D01*
X107995D01*
X109832Y298761D01*
X111239Y300168D01*
X112000Y302005D01*
Y303995D01*
X111239Y305832D01*
X109832Y307239D01*
X107995Y308000D01*
D02*
G37*
G36*
X245995Y307000D02*
X244005D01*
X242168Y306239D01*
X240761Y304832D01*
X240000Y302995D01*
Y301005D01*
X240761Y299168D01*
X242168Y297761D01*
X244005Y297000D01*
X245995D01*
X247832Y297761D01*
X249239Y299168D01*
X250000Y301005D01*
Y302995D01*
X249239Y304832D01*
X247832Y306239D01*
X245995Y307000D01*
D02*
G37*
G36*
X106770Y291221D02*
Y289770D01*
X108221D01*
X108043Y290199D01*
X107199Y291043D01*
X106770Y291221D01*
D02*
G37*
G36*
X104230D02*
X103801Y291043D01*
X102957Y290199D01*
X102779Y289770D01*
X104230D01*
Y291221D01*
D02*
G37*
G36*
X47970Y308000D02*
X47270D01*
Y289270D01*
X66000D01*
Y289970D01*
X65231Y293834D01*
X63724Y297474D01*
X61535Y300749D01*
X58749Y303535D01*
X55473Y305724D01*
X51834Y307231D01*
X47970Y308000D01*
D02*
G37*
G36*
X44730D02*
X44030D01*
X40166Y307231D01*
X36527Y305724D01*
X33251Y303535D01*
X30465Y300749D01*
X28276Y297474D01*
X26769Y293834D01*
X26000Y289970D01*
Y289270D01*
X44730D01*
Y308000D01*
D02*
G37*
G36*
X108221Y287230D02*
X106770D01*
Y285779D01*
X107199Y285957D01*
X108043Y286801D01*
X108221Y287230D01*
D02*
G37*
G36*
X104230D02*
X102779D01*
X102957Y286801D01*
X103801Y285957D01*
X104230Y285779D01*
Y287230D01*
D02*
G37*
G36*
X66000Y286730D02*
X47270D01*
Y268000D01*
X47970D01*
X51834Y268769D01*
X55473Y270276D01*
X58749Y272465D01*
X61535Y275251D01*
X63724Y278526D01*
X65231Y282166D01*
X66000Y286030D01*
Y286730D01*
D02*
G37*
G36*
X44730D02*
X26000D01*
Y286030D01*
X26769Y282166D01*
X28276Y278526D01*
X30465Y275251D01*
X33251Y272465D01*
X36527Y270276D01*
X40166Y268769D01*
X44030Y268000D01*
X44730D01*
Y286730D01*
D02*
G37*
G36*
X312270Y258721D02*
Y257270D01*
X313721D01*
X313543Y257699D01*
X312699Y258543D01*
X312270Y258721D01*
D02*
G37*
G36*
X309730D02*
X309301Y258543D01*
X308457Y257699D01*
X308279Y257270D01*
X309730D01*
Y258721D01*
D02*
G37*
G36*
X313721Y254730D02*
X312270D01*
Y253279D01*
X312699Y253457D01*
X313543Y254301D01*
X313721Y254730D01*
D02*
G37*
G36*
X309730D02*
X308279D01*
X308457Y254301D01*
X309301Y253457D01*
X309730Y253279D01*
Y254730D01*
D02*
G37*
G36*
X167745Y257000D02*
X165756D01*
X163918Y256239D01*
X162511Y254832D01*
X161750Y252995D01*
Y251005D01*
X162511Y249168D01*
X163179Y248500D01*
X162511Y247832D01*
X161750Y245995D01*
Y244006D01*
X162511Y242168D01*
X163918Y240761D01*
X165756Y240000D01*
X167745D01*
X169582Y240761D01*
X170989Y242168D01*
X171750Y244006D01*
Y245995D01*
X170989Y247832D01*
X170321Y248500D01*
X170989Y249168D01*
X171750Y251005D01*
Y252995D01*
X170989Y254832D01*
X169582Y256239D01*
X167745Y257000D01*
D02*
G37*
G36*
X299995Y239000D02*
X298005D01*
X296168Y238239D01*
X294761Y236832D01*
X294000Y234995D01*
Y233005D01*
X294761Y231168D01*
X296168Y229761D01*
X298005Y229000D01*
X299995D01*
X301832Y229761D01*
X303239Y231168D01*
X304000Y233005D01*
Y234995D01*
X303239Y236832D01*
X301832Y238239D01*
X299995Y239000D01*
D02*
G37*
G36*
X190995Y238000D02*
X189005D01*
X187168Y237239D01*
X185761Y235832D01*
X185000Y233995D01*
Y232005D01*
X185761Y230168D01*
X187168Y228761D01*
X189005Y228000D01*
X190995D01*
X192832Y228761D01*
X194239Y230168D01*
X195000Y232005D01*
Y233995D01*
X194239Y235832D01*
X192832Y237239D01*
X190995Y238000D01*
D02*
G37*
G36*
X186000Y212500D02*
X182770D01*
Y201270D01*
X186000D01*
Y212500D01*
D02*
G37*
G36*
X180230D02*
X177000D01*
Y201270D01*
X180230D01*
Y212500D01*
D02*
G37*
G36*
X186000Y198730D02*
X182770D01*
Y187500D01*
X186000D01*
Y198730D01*
D02*
G37*
G36*
X180230D02*
X177000D01*
Y187500D01*
X180230D01*
Y198730D01*
D02*
G37*
G36*
X190745Y184500D02*
X188755D01*
X186918Y183739D01*
X185511Y182332D01*
X184750Y180495D01*
Y178505D01*
X185511Y176668D01*
X186918Y175261D01*
X188755Y174500D01*
X190745D01*
X192582Y175261D01*
X193989Y176668D01*
X194750Y178505D01*
Y180495D01*
X193989Y182332D01*
X192582Y183739D01*
X190745Y184500D01*
D02*
G37*
G36*
X186500Y172050D02*
X177270D01*
Y170320D01*
X186500D01*
Y172050D01*
D02*
G37*
G36*
X174730D02*
X165500D01*
Y170320D01*
X174730D01*
Y172050D01*
D02*
G37*
G36*
X94270Y400721D02*
Y399270D01*
X95721D01*
X95543Y399699D01*
X94699Y400543D01*
X94270Y400721D01*
D02*
G37*
G36*
X91730D02*
X91301Y400543D01*
X90457Y399699D01*
X90279Y399270D01*
X91730D01*
Y400721D01*
D02*
G37*
G36*
X103270Y399721D02*
Y398270D01*
X104721D01*
X104543Y398699D01*
X103699Y399543D01*
X103270Y399721D01*
D02*
G37*
G36*
X100730D02*
X100301Y399543D01*
X99457Y398699D01*
X99279Y398270D01*
X100730D01*
Y399721D01*
D02*
G37*
G36*
X128500Y399300D02*
X119270D01*
Y397570D01*
X128500D01*
Y399300D01*
D02*
G37*
G36*
X116730D02*
X107500D01*
Y397570D01*
X116730D01*
Y399300D01*
D02*
G37*
G36*
X95721Y396730D02*
X94270D01*
Y395279D01*
X94699Y395457D01*
X95543Y396301D01*
X95721Y396730D01*
D02*
G37*
G36*
X91730D02*
X90279D01*
X90457Y396301D01*
X91301Y395457D01*
X91730Y395279D01*
Y396730D01*
D02*
G37*
G36*
X84270Y396721D02*
Y395270D01*
X85721D01*
X85543Y395699D01*
X84699Y396543D01*
X84270Y396721D01*
D02*
G37*
G36*
X81730D02*
X81301Y396543D01*
X80457Y395699D01*
X80279Y395270D01*
X81730D01*
Y396721D01*
D02*
G37*
G36*
X104721Y395730D02*
X103270D01*
Y394279D01*
X103699Y394457D01*
X104543Y395301D01*
X104721Y395730D01*
D02*
G37*
G36*
X100730D02*
X99279D01*
X99457Y395301D01*
X100301Y394457D01*
X100730Y394279D01*
Y395730D01*
D02*
G37*
G36*
X128500Y395030D02*
X119270D01*
Y393300D01*
X128500D01*
Y395030D01*
D02*
G37*
G36*
X116730D02*
X107500D01*
Y393300D01*
X116730D01*
Y395030D01*
D02*
G37*
G36*
X91460Y392933D02*
Y391482D01*
X92911D01*
X92733Y391911D01*
X91889Y392755D01*
X91460Y392933D01*
D02*
G37*
G36*
X88919D02*
X88490Y392755D01*
X87646Y391911D01*
X87468Y391482D01*
X88919D01*
Y392933D01*
D02*
G37*
G36*
X85721Y392730D02*
X84270D01*
Y391279D01*
X84699Y391457D01*
X85543Y392301D01*
X85721Y392730D01*
D02*
G37*
G36*
X81730D02*
X80279D01*
X80457Y392301D01*
X81301Y391457D01*
X81730Y391279D01*
Y392730D01*
D02*
G37*
G36*
X103297Y391638D02*
Y390187D01*
X104748D01*
X104570Y390617D01*
X103726Y391461D01*
X103297Y391638D01*
D02*
G37*
G36*
X100757D02*
X100328Y391461D01*
X99483Y390617D01*
X99306Y390187D01*
X100757D01*
Y391638D01*
D02*
G37*
G36*
X92911Y388942D02*
X91460D01*
Y387491D01*
X91889Y387669D01*
X92733Y388513D01*
X92911Y388942D01*
D02*
G37*
G36*
X88919D02*
X87468D01*
X87646Y388513D01*
X88490Y387669D01*
X88919Y387491D01*
Y388942D01*
D02*
G37*
G36*
X81460Y387933D02*
Y386482D01*
X82911D01*
X82733Y386911D01*
X81889Y387755D01*
X81460Y387933D01*
D02*
G37*
G36*
X78920D02*
X78490Y387755D01*
X77646Y386911D01*
X77468Y386482D01*
X78920D01*
Y387933D01*
D02*
G37*
G36*
X104748Y387647D02*
X103297D01*
Y386196D01*
X103726Y386374D01*
X104570Y387218D01*
X104748Y387647D01*
D02*
G37*
G36*
X100757D02*
X99306D01*
X99483Y387218D01*
X100328Y386374D01*
X100757Y386196D01*
Y387647D01*
D02*
G37*
G36*
X128500Y386600D02*
X119270D01*
Y384870D01*
X128500D01*
Y386600D01*
D02*
G37*
G36*
X116730D02*
X107500D01*
Y384870D01*
X116730D01*
Y386600D01*
D02*
G37*
G36*
X82911Y383942D02*
X81460D01*
Y382491D01*
X81889Y382669D01*
X82733Y383512D01*
X82911Y383942D01*
D02*
G37*
G36*
X78920D02*
X77468D01*
X77646Y383512D01*
X78490Y382669D01*
X78920Y382491D01*
Y383942D01*
D02*
G37*
G36*
X97459Y383933D02*
Y382482D01*
X98911D01*
X98733Y382911D01*
X97889Y383755D01*
X97459Y383933D01*
D02*
G37*
G36*
X94920D02*
X94490Y383755D01*
X93646Y382911D01*
X93468Y382482D01*
X94920D01*
Y383933D01*
D02*
G37*
G36*
X128500Y382330D02*
X119270D01*
Y380600D01*
X128500D01*
Y382330D01*
D02*
G37*
G36*
X116730D02*
X107500D01*
Y380600D01*
X116730D01*
Y382330D01*
D02*
G37*
G36*
X98911Y379942D02*
X97459D01*
Y378491D01*
X97889Y378669D01*
X98733Y379513D01*
X98911Y379942D01*
D02*
G37*
G36*
X94920D02*
X93468D01*
X93646Y379513D01*
X94490Y378669D01*
X94920Y378491D01*
Y379942D01*
D02*
G37*
G36*
X87270Y378721D02*
Y377270D01*
X88721D01*
X88543Y377699D01*
X87699Y378543D01*
X87270Y378721D01*
D02*
G37*
G36*
X84730D02*
X84301Y378543D01*
X83457Y377699D01*
X83279Y377270D01*
X84730D01*
Y378721D01*
D02*
G37*
G36*
X79270Y375721D02*
Y374270D01*
X80721D01*
X80543Y374699D01*
X79699Y375543D01*
X79270Y375721D01*
D02*
G37*
G36*
X76730D02*
X76301Y375543D01*
X75457Y374699D01*
X75279Y374270D01*
X76730D01*
Y375721D01*
D02*
G37*
G36*
X98429Y375446D02*
Y373995D01*
X99880D01*
X99702Y374424D01*
X98858Y375268D01*
X98429Y375446D01*
D02*
G37*
G36*
X95889D02*
X95459Y375268D01*
X94615Y374424D01*
X94437Y373995D01*
X95889D01*
Y375446D01*
D02*
G37*
G36*
X88721Y374730D02*
X87270D01*
Y373279D01*
X87699Y373457D01*
X88543Y374301D01*
X88721Y374730D01*
D02*
G37*
G36*
X84730D02*
X83279D01*
X83457Y374301D01*
X84301Y373457D01*
X84730Y373279D01*
Y374730D01*
D02*
G37*
G36*
X80721Y371730D02*
X79270D01*
Y370279D01*
X79699Y370457D01*
X80543Y371301D01*
X80721Y371730D01*
D02*
G37*
G36*
X76730D02*
X75279D01*
X75457Y371301D01*
X76301Y370457D01*
X76730Y370279D01*
Y371730D01*
D02*
G37*
G36*
X99880Y371455D02*
X98429D01*
Y370004D01*
X98858Y370181D01*
X99702Y371025D01*
X99880Y371455D01*
D02*
G37*
G36*
X95889D02*
X94437D01*
X94615Y371025D01*
X95459Y370181D01*
X95889Y370004D01*
Y371455D01*
D02*
G37*
G36*
X91250Y369594D02*
Y368143D01*
X92701D01*
X92523Y368573D01*
X91679Y369417D01*
X91250Y369594D01*
D02*
G37*
G36*
X88710D02*
X88280Y369417D01*
X87437Y368573D01*
X87259Y368143D01*
X88710D01*
Y369594D01*
D02*
G37*
G36*
X101270Y365721D02*
Y364270D01*
X102721D01*
X102543Y364699D01*
X101699Y365543D01*
X101270Y365721D01*
D02*
G37*
G36*
X98730D02*
X98301Y365543D01*
X97457Y364699D01*
X97279Y364270D01*
X98730D01*
Y365721D01*
D02*
G37*
G36*
X92701Y365603D02*
X91250D01*
Y364152D01*
X91679Y364330D01*
X92523Y365174D01*
X92701Y365603D01*
D02*
G37*
G36*
X88710D02*
X87259D01*
X87437Y365174D01*
X88280Y364330D01*
X88710Y364152D01*
Y365603D01*
D02*
G37*
G36*
X81250Y364594D02*
Y363143D01*
X82701D01*
X82523Y363573D01*
X81679Y364417D01*
X81250Y364594D01*
D02*
G37*
G36*
X78710D02*
X78281Y364417D01*
X77437Y363573D01*
X77259Y363143D01*
X78710D01*
Y364594D01*
D02*
G37*
G36*
X102721Y361730D02*
X101270D01*
Y360279D01*
X101699Y360457D01*
X102543Y361301D01*
X102721Y361730D01*
D02*
G37*
G36*
X98730D02*
X97279D01*
X97457Y361301D01*
X98301Y360457D01*
X98730Y360279D01*
Y361730D01*
D02*
G37*
G36*
X82701Y360603D02*
X81250D01*
Y359152D01*
X81679Y359330D01*
X82523Y360174D01*
X82701Y360603D01*
D02*
G37*
G36*
X78710D02*
X77259D01*
X77437Y360174D01*
X78281Y359330D01*
X78710Y359152D01*
Y360603D01*
D02*
G37*
G36*
X96270Y357721D02*
Y356270D01*
X97721D01*
X97543Y356699D01*
X96699Y357543D01*
X96270Y357721D01*
D02*
G37*
G36*
X93730D02*
X93301Y357543D01*
X92457Y356699D01*
X92279Y356270D01*
X93730D01*
Y357721D01*
D02*
G37*
G36*
X86270D02*
Y356270D01*
X87721D01*
X87543Y356699D01*
X86699Y357543D01*
X86270Y357721D01*
D02*
G37*
G36*
X83730D02*
X83301Y357543D01*
X82457Y356699D01*
X82279Y356270D01*
X83730D01*
Y357721D01*
D02*
G37*
G36*
X97721Y353730D02*
X96270D01*
Y352279D01*
X96699Y352457D01*
X97543Y353301D01*
X97721Y353730D01*
D02*
G37*
G36*
X93730D02*
X92279D01*
X92457Y353301D01*
X93301Y352457D01*
X93730Y352279D01*
Y353730D01*
D02*
G37*
G36*
X87721D02*
X86270D01*
Y352279D01*
X86699Y352457D01*
X87543Y353301D01*
X87721Y353730D01*
D02*
G37*
G36*
X83730D02*
X82279D01*
X82457Y353301D01*
X83301Y352457D01*
X83730Y352279D01*
Y353730D01*
D02*
G37*
G36*
X186500Y399300D02*
X177270D01*
Y397570D01*
X186500D01*
Y399300D01*
D02*
G37*
G36*
X174730D02*
X165500D01*
Y397570D01*
X174730D01*
Y399300D01*
D02*
G37*
G36*
X186500Y395030D02*
X177270D01*
Y393300D01*
X186500D01*
Y395030D01*
D02*
G37*
G36*
X174730D02*
X165500D01*
Y393300D01*
X174730D01*
Y395030D01*
D02*
G37*
G36*
X186500Y386600D02*
X177270D01*
Y384870D01*
X186500D01*
Y386600D01*
D02*
G37*
G36*
X174730D02*
X165500D01*
Y384870D01*
X174730D01*
Y386600D01*
D02*
G37*
G36*
X186500Y382330D02*
X177270D01*
Y380600D01*
X186500D01*
Y382330D01*
D02*
G37*
G36*
X174730D02*
X165500D01*
Y380600D01*
X174730D01*
Y382330D01*
D02*
G37*
G36*
X193270Y373721D02*
Y372270D01*
X194721D01*
X194543Y372699D01*
X193699Y373543D01*
X193270Y373721D01*
D02*
G37*
G36*
X190730D02*
X190301Y373543D01*
X189457Y372699D01*
X189279Y372270D01*
X190730D01*
Y373721D01*
D02*
G37*
G36*
X186500Y373900D02*
X177270D01*
Y372170D01*
X186500D01*
Y373900D01*
D02*
G37*
G36*
X174730D02*
X165500D01*
Y372170D01*
X174730D01*
Y373900D01*
D02*
G37*
G36*
X242500Y399000D02*
X224520D01*
Y371270D01*
X242500D01*
Y399000D01*
D02*
G37*
G36*
X221980D02*
X204000D01*
Y371270D01*
X221980D01*
Y399000D01*
D02*
G37*
G36*
X194721Y369730D02*
X193270D01*
Y368279D01*
X193699Y368457D01*
X194543Y369301D01*
X194721Y369730D01*
D02*
G37*
G36*
X190730D02*
X189279D01*
X189457Y369301D01*
X190301Y368457D01*
X190730Y368279D01*
Y369730D01*
D02*
G37*
G36*
X186500Y369630D02*
X177270D01*
Y367900D01*
X186500D01*
Y369630D01*
D02*
G37*
G36*
X174730D02*
X165500D01*
Y367900D01*
X174730D01*
Y369630D01*
D02*
G37*
G36*
X242500Y368730D02*
X224520D01*
Y341000D01*
X242500D01*
Y368730D01*
D02*
G37*
G36*
X221980D02*
X204000D01*
Y341000D01*
X221980D01*
Y368730D01*
D02*
G37*
G36*
X342000Y399000D02*
X324020D01*
Y371270D01*
X342000D01*
Y399000D01*
D02*
G37*
G36*
X321480D02*
X303500D01*
Y371270D01*
X321480D01*
Y399000D01*
D02*
G37*
G36*
X353270Y367721D02*
Y366270D01*
X354721D01*
X354543Y366699D01*
X353699Y367543D01*
X353270Y367721D01*
D02*
G37*
G36*
X350730D02*
X350301Y367543D01*
X349457Y366699D01*
X349279Y366270D01*
X350730D01*
Y367721D01*
D02*
G37*
G36*
X354721Y363730D02*
X353270D01*
Y362279D01*
X353699Y362457D01*
X354543Y363301D01*
X354721Y363730D01*
D02*
G37*
G36*
X350730D02*
X349279D01*
X349457Y363301D01*
X350301Y362457D01*
X350730Y362279D01*
Y363730D01*
D02*
G37*
G36*
X451970Y380000D02*
X451270D01*
Y361270D01*
X470000D01*
Y361970D01*
X469231Y365834D01*
X467724Y369473D01*
X465535Y372749D01*
X462749Y375535D01*
X459473Y377724D01*
X455834Y379231D01*
X451970Y380000D01*
D02*
G37*
G36*
X448730D02*
X448030D01*
X444166Y379231D01*
X440526Y377724D01*
X437251Y375535D01*
X434465Y372749D01*
X432276Y369473D01*
X430769Y365834D01*
X430000Y361970D01*
Y361270D01*
X448730D01*
Y380000D01*
D02*
G37*
G36*
X390750Y376750D02*
X379270D01*
Y359270D01*
X390750D01*
Y376750D01*
D02*
G37*
G36*
X376730D02*
X365250D01*
Y359270D01*
X376730D01*
Y376750D01*
D02*
G37*
G36*
X342000Y368730D02*
X324020D01*
Y341000D01*
X342000D01*
Y368730D01*
D02*
G37*
G36*
X321480D02*
X303500D01*
Y341000D01*
X321480D01*
Y368730D01*
D02*
G37*
G36*
X470000Y358730D02*
X451270D01*
Y340000D01*
X451970D01*
X455834Y340769D01*
X459473Y342276D01*
X462749Y344465D01*
X465535Y347251D01*
X467724Y350527D01*
X469231Y354166D01*
X470000Y358030D01*
Y358730D01*
D02*
G37*
G36*
X448730D02*
X430000D01*
Y358030D01*
X430769Y354166D01*
X432276Y350527D01*
X434465Y347251D01*
X437251Y344465D01*
X440526Y342276D01*
X444166Y340769D01*
X448030Y340000D01*
X448730D01*
Y358730D01*
D02*
G37*
G36*
X390750Y356730D02*
X379270D01*
Y339250D01*
X390750D01*
Y356730D01*
D02*
G37*
G36*
X376730D02*
X365250D01*
Y339250D01*
X376730D01*
Y356730D01*
D02*
G37*
G36*
X397270Y317721D02*
Y316270D01*
X398721D01*
X398543Y316699D01*
X397699Y317543D01*
X397270Y317721D01*
D02*
G37*
G36*
X394730D02*
X394301Y317543D01*
X393457Y316699D01*
X393279Y316270D01*
X394730D01*
Y317721D01*
D02*
G37*
G36*
X360730D02*
X360301Y317543D01*
X359457Y316699D01*
X359279Y316270D01*
X360730D01*
Y317721D01*
D02*
G37*
G36*
X398721Y313730D02*
X397270D01*
Y312279D01*
X397699Y312457D01*
X398543Y313301D01*
X398721Y313730D01*
D02*
G37*
G36*
X394730D02*
X393279D01*
X393457Y313301D01*
X394301Y312457D01*
X394730Y312279D01*
Y313730D01*
D02*
G37*
G36*
X360730D02*
X359279D01*
X359457Y313301D01*
X360301Y312457D01*
X360730Y312279D01*
Y313730D01*
D02*
G37*
G36*
X376730Y302730D02*
X365250D01*
Y299789D01*
X363980Y299263D01*
X363699Y299543D01*
X363270Y299721D01*
Y297000D01*
Y294279D01*
X363699Y294457D01*
X363980Y294737D01*
X365250Y294211D01*
Y285250D01*
X376730D01*
Y302730D01*
D02*
G37*
G36*
X396270Y299721D02*
Y298270D01*
X397721D01*
X397543Y298699D01*
X396699Y299543D01*
X396270Y299721D01*
D02*
G37*
G36*
X360730D02*
X360301Y299543D01*
X359457Y298699D01*
X359279Y298270D01*
X360730D01*
Y299721D01*
D02*
G37*
G36*
X397721Y295730D02*
X396270D01*
Y294279D01*
X396699Y294457D01*
X397543Y295301D01*
X397721Y295730D01*
D02*
G37*
G36*
X390750Y302730D02*
X379270D01*
Y285250D01*
X390750D01*
Y295197D01*
X390997Y296364D01*
X392000Y296403D01*
X392457Y295301D01*
X393301Y294457D01*
X393730Y294279D01*
Y297000D01*
Y299721D01*
X393301Y299543D01*
X392457Y298699D01*
X392000Y297597D01*
X390997Y297635D01*
X390750Y298803D01*
Y302730D01*
D02*
G37*
G36*
X360730Y295730D02*
X359279D01*
X359457Y295301D01*
X360301Y294457D01*
X360730Y294279D01*
Y295730D01*
D02*
G37*
G36*
X386270Y282721D02*
Y281270D01*
X387721D01*
X387543Y281699D01*
X386699Y282543D01*
X386270Y282721D01*
D02*
G37*
G36*
X383730D02*
X383301Y282543D01*
X382457Y281699D01*
X382279Y281270D01*
X383730D01*
Y282721D01*
D02*
G37*
G36*
X373270D02*
Y281270D01*
X374721D01*
X374543Y281699D01*
X373699Y282543D01*
X373270Y282721D01*
D02*
G37*
G36*
X370730D02*
X370301Y282543D01*
X369457Y281699D01*
X369279Y281270D01*
X370730D01*
Y282721D01*
D02*
G37*
G36*
X387721Y278730D02*
X386270D01*
Y277279D01*
X386699Y277457D01*
X387543Y278301D01*
X387721Y278730D01*
D02*
G37*
G36*
X383730D02*
X382279D01*
X382457Y278301D01*
X383301Y277457D01*
X383730Y277279D01*
Y278730D01*
D02*
G37*
G36*
X374721D02*
X373270D01*
Y277279D01*
X373699Y277457D01*
X374543Y278301D01*
X374721Y278730D01*
D02*
G37*
G36*
X370730D02*
X369279D01*
X369457Y278301D01*
X370301Y277457D01*
X370730Y277279D01*
Y278730D01*
D02*
G37*
G36*
X387270Y246721D02*
Y245270D01*
X388721D01*
X388543Y245699D01*
X387699Y246543D01*
X387270Y246721D01*
D02*
G37*
G36*
X384730D02*
X384301Y246543D01*
X383457Y245699D01*
X383279Y245270D01*
X384730D01*
Y246721D01*
D02*
G37*
G36*
X376270D02*
Y245270D01*
X377721D01*
X377543Y245699D01*
X376699Y246543D01*
X376270Y246721D01*
D02*
G37*
G36*
X373730D02*
X373301Y246543D01*
X372457Y245699D01*
X372279Y245270D01*
X373730D01*
Y246721D01*
D02*
G37*
G36*
X388721Y242730D02*
X387270D01*
Y241279D01*
X387699Y241457D01*
X388543Y242301D01*
X388721Y242730D01*
D02*
G37*
G36*
X384730D02*
X383279D01*
X383457Y242301D01*
X384301Y241457D01*
X384730Y241279D01*
Y242730D01*
D02*
G37*
G36*
X377721D02*
X376270D01*
Y241279D01*
X376699Y241457D01*
X377543Y242301D01*
X377721Y242730D01*
D02*
G37*
G36*
X373730D02*
X372279D01*
X372457Y242301D01*
X373301Y241457D01*
X373730Y241279D01*
Y242730D01*
D02*
G37*
G36*
X398270Y234721D02*
Y233270D01*
X399721D01*
X399543Y233699D01*
X398699Y234543D01*
X398270Y234721D01*
D02*
G37*
G36*
X363329Y234226D02*
Y232775D01*
X364780D01*
X364602Y233205D01*
X363758Y234049D01*
X363329Y234226D01*
D02*
G37*
G36*
X360789D02*
X360359Y234049D01*
X359515Y233205D01*
X359338Y232775D01*
X360789D01*
Y234226D01*
D02*
G37*
G36*
X399721Y230730D02*
X398270D01*
Y229279D01*
X398699Y229457D01*
X399543Y230301D01*
X399721Y230730D01*
D02*
G37*
G36*
X392750Y238750D02*
X381270D01*
Y221270D01*
X392750D01*
Y230197D01*
X392997Y231364D01*
X394000Y231403D01*
X394457Y230301D01*
X395301Y229457D01*
X395730Y229279D01*
Y232000D01*
Y234721D01*
X395301Y234543D01*
X394457Y233699D01*
X394000Y232597D01*
X392997Y232635D01*
X392750Y233803D01*
Y238750D01*
D02*
G37*
G36*
X364780Y230235D02*
X363329D01*
Y228784D01*
X363758Y228962D01*
X364602Y229806D01*
X364780Y230235D01*
D02*
G37*
G36*
X360789D02*
X359338D01*
X359515Y229806D01*
X360359Y228962D01*
X360789Y228784D01*
Y230235D01*
D02*
G37*
G36*
X378730Y238750D02*
X367250D01*
Y221270D01*
X378730D01*
Y238750D01*
D02*
G37*
G36*
X398270Y213721D02*
Y212270D01*
X399721D01*
X399543Y212699D01*
X398699Y213543D01*
X398270Y213721D01*
D02*
G37*
G36*
X363270D02*
Y212270D01*
X364721D01*
X364543Y212699D01*
X363699Y213543D01*
X363270Y213721D01*
D02*
G37*
G36*
X360730D02*
X360301Y213543D01*
X359457Y212699D01*
X359279Y212270D01*
X360730D01*
Y213721D01*
D02*
G37*
G36*
X399721Y209730D02*
X398270D01*
Y208279D01*
X398699Y208457D01*
X399543Y209301D01*
X399721Y209730D01*
D02*
G37*
G36*
X392750Y218730D02*
X381270D01*
Y201250D01*
X392750D01*
Y209197D01*
X392997Y210364D01*
X394000Y210403D01*
X394457Y209301D01*
X395301Y208457D01*
X395730Y208279D01*
Y211000D01*
Y213721D01*
X395301Y213543D01*
X394457Y212699D01*
X394000Y211597D01*
X392997Y211635D01*
X392750Y212803D01*
Y218730D01*
D02*
G37*
G36*
X364721Y209730D02*
X363270D01*
Y208279D01*
X363699Y208457D01*
X364543Y209301D01*
X364721Y209730D01*
D02*
G37*
G36*
X360730D02*
X359279D01*
X359457Y209301D01*
X360301Y208457D01*
X360730Y208279D01*
Y209730D01*
D02*
G37*
G36*
X378730Y218730D02*
X367250D01*
Y201250D01*
X378730D01*
Y218730D01*
D02*
G37*
G36*
X137270Y211721D02*
Y210270D01*
X138721D01*
X138543Y210699D01*
X137699Y211543D01*
X137270Y211721D01*
D02*
G37*
G36*
X134730D02*
X134301Y211543D01*
X133457Y210699D01*
X133279Y210270D01*
X134730D01*
Y211721D01*
D02*
G37*
G36*
X138721Y207730D02*
X137270D01*
Y206279D01*
X137699Y206457D01*
X138543Y207301D01*
X138721Y207730D01*
D02*
G37*
G36*
X134730D02*
X133279D01*
X133457Y207301D01*
X134301Y206457D01*
X134730Y206279D01*
Y207730D01*
D02*
G37*
G36*
X155000Y212500D02*
X151770D01*
Y201270D01*
X155000D01*
Y212500D01*
D02*
G37*
G36*
X149230D02*
X146000D01*
Y201270D01*
X149230D01*
Y212500D01*
D02*
G37*
G36*
X137550Y202721D02*
Y201270D01*
X139001D01*
X138823Y201699D01*
X137979Y202543D01*
X137550Y202721D01*
D02*
G37*
G36*
X135010D02*
X134581Y202543D01*
X133737Y201699D01*
X133559Y201270D01*
X135010D01*
Y202721D01*
D02*
G37*
G36*
X139001Y198730D02*
X137550D01*
Y197279D01*
X137979Y197457D01*
X138823Y198301D01*
X139001Y198730D01*
D02*
G37*
G36*
X135010D02*
X133559D01*
X133737Y198301D01*
X134581Y197457D01*
X135010Y197279D01*
Y198730D01*
D02*
G37*
G36*
X137270Y193721D02*
Y192270D01*
X138721D01*
X138543Y192699D01*
X137699Y193543D01*
X137270Y193721D01*
D02*
G37*
G36*
X134730D02*
X134301Y193543D01*
X133457Y192699D01*
X133279Y192270D01*
X134730D01*
Y193721D01*
D02*
G37*
G36*
X138721Y189730D02*
X137270D01*
Y188279D01*
X137699Y188457D01*
X138543Y189301D01*
X138721Y189730D01*
D02*
G37*
G36*
X134730D02*
X133279D01*
X133457Y189301D01*
X134301Y188457D01*
X134730Y188279D01*
Y189730D01*
D02*
G37*
G36*
X155000Y198730D02*
X151770D01*
Y187500D01*
X155000D01*
Y198730D01*
D02*
G37*
G36*
X149230D02*
X146000D01*
Y187500D01*
X149230D01*
Y198730D01*
D02*
G37*
G36*
X186500Y159350D02*
X177270D01*
Y157620D01*
X186500D01*
Y159350D01*
D02*
G37*
G36*
X174730D02*
X165500D01*
Y157620D01*
X174730D01*
Y159350D01*
D02*
G37*
G36*
X186500Y155080D02*
X177270D01*
Y153350D01*
X186500D01*
Y155080D01*
D02*
G37*
G36*
X174730D02*
X165500D01*
Y153350D01*
X174730D01*
Y155080D01*
D02*
G37*
G36*
X186500Y146650D02*
X177270D01*
Y144920D01*
X186500D01*
Y146650D01*
D02*
G37*
G36*
X174730D02*
X165500D01*
Y144920D01*
X174730D01*
Y146650D01*
D02*
G37*
G36*
X186500Y142380D02*
X177270D01*
Y140650D01*
X186500D01*
Y142380D01*
D02*
G37*
G36*
X174730D02*
X165500D01*
Y140650D01*
X174730D01*
Y142380D01*
D02*
G37*
G36*
X191270Y133721D02*
Y132270D01*
X192721D01*
X192543Y132699D01*
X191699Y133543D01*
X191270Y133721D01*
D02*
G37*
G36*
X174730Y133950D02*
X165500D01*
Y132220D01*
X174730D01*
Y133950D01*
D02*
G37*
G36*
X242500Y159000D02*
X224520D01*
Y131270D01*
X242500D01*
Y159000D01*
D02*
G37*
G36*
X221980D02*
X204000D01*
Y131270D01*
X221980D01*
Y159000D01*
D02*
G37*
G36*
X192721Y129730D02*
X191270D01*
Y128279D01*
X191699Y128457D01*
X192543Y129301D01*
X192721Y129730D01*
D02*
G37*
G36*
X186500Y133950D02*
X177270D01*
Y130950D01*
Y127950D01*
X186500D01*
Y128544D01*
X187770Y128987D01*
X188301Y128457D01*
X188730Y128279D01*
Y131000D01*
Y133721D01*
X188301Y133543D01*
X187770Y133013D01*
X186500Y133456D01*
Y133950D01*
D02*
G37*
G36*
X174730Y129680D02*
X165500D01*
Y127950D01*
X174730D01*
Y129680D01*
D02*
G37*
G36*
X242500Y128730D02*
X224520D01*
Y101000D01*
X242500D01*
Y128730D01*
D02*
G37*
G36*
X221980D02*
X204000D01*
Y101000D01*
X221980D01*
Y128730D01*
D02*
G37*
G36*
X93270Y159721D02*
Y158270D01*
X94721D01*
X94543Y158699D01*
X93699Y159543D01*
X93270Y159721D01*
D02*
G37*
G36*
X90730D02*
X90301Y159543D01*
X89457Y158699D01*
X89279Y158270D01*
X90730D01*
Y159721D01*
D02*
G37*
G36*
X128500Y159350D02*
X119270D01*
Y157620D01*
X128500D01*
Y159350D01*
D02*
G37*
G36*
X116730D02*
X107500D01*
Y157620D01*
X116730D01*
Y159350D01*
D02*
G37*
G36*
X104270Y157721D02*
Y156270D01*
X105721D01*
X105543Y156699D01*
X104699Y157543D01*
X104270Y157721D01*
D02*
G37*
G36*
X101730D02*
X101301Y157543D01*
X100457Y156699D01*
X100279Y156270D01*
X101730D01*
Y157721D01*
D02*
G37*
G36*
X94721Y155730D02*
X93270D01*
Y154279D01*
X93699Y154457D01*
X94543Y155301D01*
X94721Y155730D01*
D02*
G37*
G36*
X90730D02*
X89279D01*
X89457Y155301D01*
X90301Y154457D01*
X90730Y154279D01*
Y155730D01*
D02*
G37*
G36*
X128500Y155080D02*
X119270D01*
Y153350D01*
X128500D01*
Y155080D01*
D02*
G37*
G36*
X116730D02*
X107500D01*
Y153350D01*
X116730D01*
Y155080D01*
D02*
G37*
G36*
X105721Y153730D02*
X104270D01*
Y152279D01*
X104699Y152457D01*
X105543Y153301D01*
X105721Y153730D01*
D02*
G37*
G36*
X101730D02*
X100279D01*
X100457Y153301D01*
X101301Y152457D01*
X101730Y152279D01*
Y153730D01*
D02*
G37*
G36*
X96460Y152933D02*
Y151482D01*
X97911D01*
X97733Y151911D01*
X96889Y152755D01*
X96460Y152933D01*
D02*
G37*
G36*
X93919D02*
X93490Y152755D01*
X92646Y151911D01*
X92468Y151482D01*
X93919D01*
Y152933D01*
D02*
G37*
G36*
X86460D02*
Y151482D01*
X87911D01*
X87733Y151911D01*
X86889Y152755D01*
X86460Y152933D01*
D02*
G37*
G36*
X83919D02*
X83490Y152755D01*
X82646Y151911D01*
X82468Y151482D01*
X83919D01*
Y152933D01*
D02*
G37*
G36*
X97911Y148942D02*
X96460D01*
Y147491D01*
X96889Y147669D01*
X97733Y148513D01*
X97911Y148942D01*
D02*
G37*
G36*
X93919D02*
X92468D01*
X92646Y148513D01*
X93490Y147669D01*
X93919Y147491D01*
Y148942D01*
D02*
G37*
G36*
X87911D02*
X86460D01*
Y147491D01*
X86889Y147669D01*
X87733Y148513D01*
X87911Y148942D01*
D02*
G37*
G36*
X83919D02*
X82468D01*
X82646Y148513D01*
X83490Y147669D01*
X83919Y147491D01*
Y148942D01*
D02*
G37*
G36*
X103270Y147721D02*
Y146270D01*
X104721D01*
X104543Y146699D01*
X103699Y147543D01*
X103270Y147721D01*
D02*
G37*
G36*
X100730D02*
X100301Y147543D01*
X99457Y146699D01*
X99279Y146270D01*
X100730D01*
Y147721D01*
D02*
G37*
G36*
X79270D02*
Y146270D01*
X80721D01*
X80543Y146699D01*
X79699Y147543D01*
X79270Y147721D01*
D02*
G37*
G36*
X76730D02*
X76301Y147543D01*
X75457Y146699D01*
X75279Y146270D01*
X76730D01*
Y147721D01*
D02*
G37*
G36*
X128500Y146650D02*
X119270D01*
Y144920D01*
X128500D01*
Y146650D01*
D02*
G37*
G36*
X116730D02*
X107500D01*
Y144920D01*
X116730D01*
Y146650D01*
D02*
G37*
G36*
X104721Y143730D02*
X103270D01*
Y142279D01*
X103699Y142457D01*
X104543Y143301D01*
X104721Y143730D01*
D02*
G37*
G36*
X100730D02*
X99279D01*
X99457Y143301D01*
X100301Y142457D01*
X100730Y142279D01*
Y143730D01*
D02*
G37*
G36*
X80721D02*
X79270D01*
Y142279D01*
X79699Y142457D01*
X80543Y143301D01*
X80721Y143730D01*
D02*
G37*
G36*
X76730D02*
X75279D01*
X75457Y143301D01*
X76301Y142457D01*
X76730Y142279D01*
Y143730D01*
D02*
G37*
G36*
X91460Y142933D02*
Y141482D01*
X92911D01*
X92733Y141911D01*
X91889Y142755D01*
X91460Y142933D01*
D02*
G37*
G36*
X88919D02*
X88490Y142755D01*
X87646Y141911D01*
X87468Y141482D01*
X88919D01*
Y142933D01*
D02*
G37*
G36*
X128500Y142380D02*
X119270D01*
Y140650D01*
X128500D01*
Y142380D01*
D02*
G37*
G36*
X116730D02*
X107500D01*
Y140650D01*
X116730D01*
Y142380D01*
D02*
G37*
G36*
X92911Y138942D02*
X91460D01*
Y137491D01*
X91889Y137669D01*
X92733Y138512D01*
X92911Y138942D01*
D02*
G37*
G36*
X88919D02*
X87468D01*
X87646Y138512D01*
X88490Y137669D01*
X88919Y137491D01*
Y138942D01*
D02*
G37*
G36*
X81270Y137721D02*
Y136270D01*
X82721D01*
X82543Y136699D01*
X81699Y137543D01*
X81270Y137721D01*
D02*
G37*
G36*
X78730D02*
X78301Y137543D01*
X77457Y136699D01*
X77279Y136270D01*
X78730D01*
Y137721D01*
D02*
G37*
G36*
X100429Y136446D02*
Y134995D01*
X101880D01*
X101702Y135424D01*
X100858Y136268D01*
X100429Y136446D01*
D02*
G37*
G36*
X97889D02*
X97459Y136268D01*
X96615Y135424D01*
X96437Y134995D01*
X97889D01*
Y136446D01*
D02*
G37*
G36*
X82721Y133730D02*
X81270D01*
Y132279D01*
X81699Y132457D01*
X82543Y133301D01*
X82721Y133730D01*
D02*
G37*
G36*
X78730D02*
X77279D01*
X77457Y133301D01*
X78301Y132457D01*
X78730Y132279D01*
Y133730D01*
D02*
G37*
G36*
X101880Y132455D02*
X100429D01*
Y131004D01*
X100858Y131181D01*
X101702Y132025D01*
X101880Y132455D01*
D02*
G37*
G36*
X97889D02*
X96437D01*
X96615Y132025D01*
X97459Y131181D01*
X97889Y131004D01*
Y132455D01*
D02*
G37*
G36*
X86250Y129594D02*
Y128143D01*
X87701D01*
X87523Y128573D01*
X86679Y129417D01*
X86250Y129594D01*
D02*
G37*
G36*
X83710D02*
X83281Y129417D01*
X82437Y128573D01*
X82259Y128143D01*
X83710D01*
Y129594D01*
D02*
G37*
G36*
X100429Y126446D02*
Y124995D01*
X101880D01*
X101702Y125424D01*
X100858Y126268D01*
X100429Y126446D01*
D02*
G37*
G36*
X97889D02*
X97459Y126268D01*
X96615Y125424D01*
X96437Y124995D01*
X97889D01*
Y126446D01*
D02*
G37*
G36*
X79270Y125721D02*
Y124270D01*
X80721D01*
X80543Y124699D01*
X79699Y125543D01*
X79270Y125721D01*
D02*
G37*
G36*
X76730D02*
X76301Y125543D01*
X75457Y124699D01*
X75279Y124270D01*
X76730D01*
Y125721D01*
D02*
G37*
G36*
X87701Y125603D02*
X86250D01*
Y124152D01*
X86679Y124330D01*
X87523Y125174D01*
X87701Y125603D01*
D02*
G37*
G36*
X83710D02*
X82259D01*
X82437Y125174D01*
X83281Y124330D01*
X83710Y124152D01*
Y125603D01*
D02*
G37*
G36*
X101880Y122455D02*
X100429D01*
Y121004D01*
X100858Y121181D01*
X101702Y122025D01*
X101880Y122455D01*
D02*
G37*
G36*
X97889D02*
X96437D01*
X96615Y122025D01*
X97459Y121181D01*
X97889Y121004D01*
Y122455D01*
D02*
G37*
G36*
X80721Y121730D02*
X79270D01*
Y120279D01*
X79699Y120457D01*
X80543Y121301D01*
X80721Y121730D01*
D02*
G37*
G36*
X76730D02*
X75279D01*
X75457Y121301D01*
X76301Y120457D01*
X76730Y120279D01*
Y121730D01*
D02*
G37*
G36*
X101270Y117721D02*
Y116270D01*
X102721D01*
X102543Y116699D01*
X101699Y117543D01*
X101270Y117721D01*
D02*
G37*
G36*
X98730D02*
X98301Y117543D01*
X97457Y116699D01*
X97279Y116270D01*
X98730D01*
Y117721D01*
D02*
G37*
G36*
X91270D02*
Y116270D01*
X92721D01*
X92543Y116699D01*
X91699Y117543D01*
X91270Y117721D01*
D02*
G37*
G36*
X88730D02*
X88301Y117543D01*
X87457Y116699D01*
X87279Y116270D01*
X88730D01*
Y117721D01*
D02*
G37*
G36*
X81270D02*
Y116270D01*
X82721D01*
X82543Y116699D01*
X81699Y117543D01*
X81270Y117721D01*
D02*
G37*
G36*
X78730D02*
X78301Y117543D01*
X77457Y116699D01*
X77279Y116270D01*
X78730D01*
Y117721D01*
D02*
G37*
G36*
X102721Y113730D02*
X101270D01*
Y112279D01*
X101699Y112457D01*
X102543Y113301D01*
X102721Y113730D01*
D02*
G37*
G36*
X98730D02*
X97279D01*
X97457Y113301D01*
X98301Y112457D01*
X98730Y112279D01*
Y113730D01*
D02*
G37*
G36*
X92721D02*
X91270D01*
Y112279D01*
X91699Y112457D01*
X92543Y113301D01*
X92721Y113730D01*
D02*
G37*
G36*
X88730D02*
X87279D01*
X87457Y113301D01*
X88301Y112457D01*
X88730Y112279D01*
Y113730D01*
D02*
G37*
G36*
X82721D02*
X81270D01*
Y112279D01*
X81699Y112457D01*
X82543Y113301D01*
X82721Y113730D01*
D02*
G37*
G36*
X78730D02*
X77279D01*
X77457Y113301D01*
X78301Y112457D01*
X78730Y112279D01*
Y113730D01*
D02*
G37*
G36*
X392750Y184750D02*
X381270D01*
Y167270D01*
X392750D01*
Y184750D01*
D02*
G37*
G36*
X378730D02*
X367250D01*
Y167270D01*
X378730D01*
Y184750D01*
D02*
G37*
G36*
X392750Y164730D02*
X381270D01*
Y147250D01*
X392750D01*
Y164730D01*
D02*
G37*
G36*
X378730D02*
X367250D01*
Y147250D01*
X378730D01*
Y164730D01*
D02*
G37*
G36*
X451970Y160000D02*
X451270D01*
Y141270D01*
X470000D01*
Y141970D01*
X469231Y145834D01*
X467724Y149473D01*
X465535Y152749D01*
X462749Y155535D01*
X459473Y157724D01*
X455834Y159231D01*
X451970Y160000D01*
D02*
G37*
G36*
X448730D02*
X448030D01*
X444166Y159231D01*
X440526Y157724D01*
X437251Y155535D01*
X434465Y152749D01*
X432276Y149473D01*
X430769Y145834D01*
X430000Y141970D01*
Y141270D01*
X448730D01*
Y160000D01*
D02*
G37*
G36*
X374270Y137721D02*
Y136270D01*
X375721D01*
X375543Y136699D01*
X374699Y137543D01*
X374270Y137721D01*
D02*
G37*
G36*
X371730D02*
X371301Y137543D01*
X370457Y136699D01*
X370279Y136270D01*
X371730D01*
Y137721D01*
D02*
G37*
G36*
X375721Y133730D02*
X374270D01*
Y132279D01*
X374699Y132457D01*
X375543Y133301D01*
X375721Y133730D01*
D02*
G37*
G36*
X371730D02*
X370279D01*
X370457Y133301D01*
X371301Y132457D01*
X371730Y132279D01*
Y133730D01*
D02*
G37*
G36*
X342000Y159000D02*
X324020D01*
Y131270D01*
X342000D01*
Y159000D01*
D02*
G37*
G36*
X321480D02*
X303500D01*
Y131270D01*
X321480D01*
Y159000D01*
D02*
G37*
G36*
X470000Y138730D02*
X451270D01*
Y120000D01*
X451970D01*
X455834Y120769D01*
X459473Y122276D01*
X462749Y124465D01*
X465535Y127251D01*
X467724Y130527D01*
X469231Y134166D01*
X470000Y138030D01*
Y138730D01*
D02*
G37*
G36*
X448730D02*
X430000D01*
Y138030D01*
X430769Y134166D01*
X432276Y130527D01*
X434465Y127251D01*
X437251Y124465D01*
X440526Y122276D01*
X444166Y120769D01*
X448030Y120000D01*
X448730D01*
Y138730D01*
D02*
G37*
G36*
X342000Y128730D02*
X324020D01*
Y101000D01*
X342000D01*
Y128730D01*
D02*
G37*
G36*
X321480D02*
X303500D01*
Y101000D01*
X321480D01*
Y128730D01*
D02*
G37*
%LPD*%
D10*
X121730Y370950D02*
X134565D01*
X378000Y304000D02*
X379000Y303000D01*
X121730Y169050D02*
X121755Y169025D01*
X135975D02*
X136000Y169000D01*
X107510Y143650D02*
X121730D01*
X107510Y156350D02*
X121730D01*
D11*
X23290Y26868D02*
Y42103D01*
X28368Y37025D01*
X33447Y42103D01*
Y26868D01*
X46143D02*
X41064D01*
X38525Y29407D01*
Y34486D01*
X41064Y37025D01*
X46143D01*
X48682Y34486D01*
Y31947D01*
X38525D01*
X53760Y26868D02*
X58839D01*
X56299D01*
Y42103D01*
X53760D01*
X66456Y26868D02*
X71534D01*
X68995D01*
Y37025D01*
X66456D01*
X79152Y26868D02*
Y42103D01*
Y31947D02*
X86769Y37025D01*
X79152Y31947D02*
X86769Y26868D01*
X102004D02*
X96926D01*
X94387Y29407D01*
Y34486D01*
X96926Y37025D01*
X102004D01*
X104544Y34486D01*
Y31947D01*
X94387D01*
X124857Y42103D02*
Y26868D01*
Y31947D01*
X135014Y42103D01*
X127396Y34486D01*
X135014Y26868D01*
X142631Y37025D02*
X147710D01*
X150249Y34486D01*
Y26868D01*
X142631D01*
X140092Y29407D01*
X142631Y31947D01*
X150249D01*
X155327Y37025D02*
Y26868D01*
Y31947D01*
X157866Y34486D01*
X160406Y37025D01*
X162945D01*
X173102D02*
X178180D01*
X180719Y34486D01*
Y26868D01*
X173102D01*
X170562Y29407D01*
X173102Y31947D01*
X180719D01*
X185797Y42103D02*
Y26868D01*
X193415D01*
X195954Y29407D01*
Y31947D01*
Y34486D01*
X193415Y37025D01*
X185797D01*
X203572D02*
X208650D01*
X211189Y34486D01*
Y26868D01*
X203572D01*
X201033Y29407D01*
X203572Y31947D01*
X211189D01*
X216268Y37025D02*
Y29407D01*
X218807Y26868D01*
X226424D01*
Y24329D01*
X223885Y21790D01*
X221346D01*
X226424Y26868D02*
Y37025D01*
X231503Y26868D02*
X236581D01*
X234042D01*
Y37025D01*
X231503D01*
X244198D02*
Y26868D01*
Y31947D01*
X246738Y34486D01*
X249277Y37025D01*
X251816D01*
D12*
X118000Y409000D02*
D03*
Y396300D02*
D03*
Y383600D02*
D03*
Y370900D02*
D03*
X176000D02*
D03*
Y383600D02*
D03*
Y396300D02*
D03*
Y409000D02*
D03*
X176000Y169050D02*
D03*
Y156350D02*
D03*
Y143650D02*
D03*
Y130950D02*
D03*
X118000D02*
D03*
Y143650D02*
D03*
Y156350D02*
D03*
Y169050D02*
D03*
D13*
X174500Y440000D02*
D03*
X143500D02*
D03*
X150500Y200000D02*
D03*
X181500D02*
D03*
D14*
X322750Y130000D02*
D03*
X223250D02*
D03*
X322750Y370000D02*
D03*
X223250D02*
D03*
D15*
X380000Y220000D02*
D03*
Y166000D02*
D03*
X378000Y358000D02*
D03*
Y304000D02*
D03*
D22*
X104000Y409000D02*
X121680D01*
X121705Y409025D01*
X137950Y130950D02*
X138000Y131000D01*
X121730Y130950D02*
X137950D01*
X121755Y169025D02*
X135975D01*
D23*
X46000Y288000D02*
D03*
X450000Y200000D02*
D03*
Y140000D02*
D03*
Y300000D02*
D03*
Y360000D02*
D03*
X46000Y199000D02*
D03*
D24*
X227000Y169250D02*
D03*
X189750Y179500D02*
D03*
X341500Y213000D02*
D03*
X341250Y221250D02*
D03*
X330139Y239637D02*
D03*
X330000Y247000D02*
D03*
X329500Y270000D02*
D03*
X328624Y297640D02*
D03*
X328657Y306455D02*
D03*
X104000Y409000D02*
D03*
X103000Y155000D02*
D03*
X102000Y145000D02*
D03*
X92000Y157000D02*
D03*
X102027Y388917D02*
D03*
X83000Y394000D02*
D03*
X102000Y397000D02*
D03*
X96189Y381212D02*
D03*
X86000Y376000D02*
D03*
X97159Y372725D02*
D03*
X258000Y286000D02*
D03*
X311000Y256000D02*
D03*
X329250Y262500D02*
D03*
X198000Y312000D02*
D03*
X80000Y135000D02*
D03*
X90190Y140212D02*
D03*
X85190Y150212D02*
D03*
X95190D02*
D03*
X80000Y115000D02*
D03*
X90000D02*
D03*
X100000D02*
D03*
X99159Y123725D02*
D03*
Y133725D02*
D03*
X78000Y123000D02*
D03*
X84980Y126873D02*
D03*
X78000Y145000D02*
D03*
Y373000D02*
D03*
X80190Y385212D02*
D03*
X89980Y366873D02*
D03*
X79980Y361873D02*
D03*
X100000Y363000D02*
D03*
X95000Y355000D02*
D03*
X85000D02*
D03*
X90190Y390212D02*
D03*
X166750Y252000D02*
D03*
Y245000D02*
D03*
X316000Y320000D02*
D03*
X324000D02*
D03*
X295000Y367000D02*
D03*
X286000Y406000D02*
D03*
X362000Y211000D02*
D03*
X362059Y231505D02*
D03*
X375000Y244000D02*
D03*
X397000Y211000D02*
D03*
Y232000D02*
D03*
X372000Y280000D02*
D03*
X396000Y315000D02*
D03*
X395000Y297000D02*
D03*
X362000D02*
D03*
Y315000D02*
D03*
X136000Y191000D02*
D03*
Y209000D02*
D03*
X186000Y426000D02*
D03*
Y435000D02*
D03*
Y443000D02*
D03*
X299000Y234000D02*
D03*
X105500Y288500D02*
D03*
X107000Y303000D02*
D03*
X288000Y306000D02*
D03*
X260000Y261000D02*
D03*
Y239000D02*
D03*
X238000D02*
D03*
X239000Y261000D02*
D03*
X306000Y314000D02*
D03*
X373000Y135000D02*
D03*
X136280Y200000D02*
D03*
X297250Y167250D02*
D03*
X231000Y214000D02*
D03*
X190000Y233000D02*
D03*
X216000Y251000D02*
D03*
X134565Y370950D02*
D03*
X217000Y261000D02*
D03*
X279000Y219000D02*
D03*
X249000Y206000D02*
D03*
X138000Y131000D02*
D03*
X244000Y314000D02*
D03*
X250000Y168000D02*
D03*
X190000Y131000D02*
D03*
X273000Y170000D02*
D03*
X192000Y371000D02*
D03*
X245000Y302000D02*
D03*
X213000Y303000D02*
D03*
X222000Y286000D02*
D03*
X341000Y198000D02*
D03*
X136000Y169000D02*
D03*
X112000Y248000D02*
D03*
X109000Y341000D02*
D03*
X352000Y365000D02*
D03*
X385000Y280000D02*
D03*
X386000Y244000D02*
D03*
X93000Y398000D02*
D03*
X282000Y360000D02*
D03*
X107500Y318000D02*
D03*
M02*
