G04*
G04 #@! TF.GenerationSoftware,Altium Limited,Altium Designer,23.3.1 (30)*
G04*
G04 Layer_Physical_Order=3*
G04 Layer_Color=36540*
%FSLAX44Y44*%
%MOMM*%
G71*
G04*
G04 #@! TF.SameCoordinates,8D2347DA-786F-44A1-B396-5F802EE38B7C*
G04*
G04*
G04 #@! TF.FilePolarity,Positive*
G04*
G01*
G75*
%ADD10C,0.2000*%
%ADD23C,4.0000*%
%ADD24C,0.6000*%
%ADD29C,1.0000*%
D10*
X214082Y303000D02*
X216082Y305000D01*
X226250D02*
X286250Y245000D01*
X213000Y303000D02*
X214082D01*
X216082Y305000D02*
X226250D01*
X286250Y245000D02*
X297000D01*
X320000Y215000D02*
Y247828D01*
X295000Y249000D02*
X318828D01*
X320000Y247828D01*
X258000Y286000D02*
X295000Y249000D01*
X320000Y215000D02*
X336757Y198243D01*
X250000Y207000D02*
X250235Y206765D01*
X251082Y207000D02*
X283000D01*
X250848Y206765D02*
X251082Y207000D01*
X308172Y232172D02*
Y233828D01*
X283000Y207000D02*
X308172Y232172D01*
X250235Y206765D02*
X250848D01*
X297000Y245000D02*
X308172Y233828D01*
X109000Y339918D02*
Y341000D01*
X107500Y338418D02*
X109000Y339918D01*
X336757Y198243D02*
X340757D01*
X341000Y198000D01*
X189750Y131250D02*
X190000Y131000D01*
D23*
X46000Y288000D02*
D03*
X450000Y200000D02*
D03*
Y140000D02*
D03*
Y300000D02*
D03*
Y360000D02*
D03*
X46000Y199000D02*
D03*
D24*
X227000Y169250D02*
D03*
X189750Y179500D02*
D03*
X341500Y213000D02*
D03*
X341250Y221250D02*
D03*
X330139Y239637D02*
D03*
X330000Y247000D02*
D03*
X329500Y270000D02*
D03*
X328624Y297640D02*
D03*
X328657Y306455D02*
D03*
X104000Y409000D02*
D03*
X103000Y155000D02*
D03*
X102000Y145000D02*
D03*
X92000Y157000D02*
D03*
X102027Y388917D02*
D03*
X83000Y394000D02*
D03*
X102000Y397000D02*
D03*
X96189Y381212D02*
D03*
X86000Y376000D02*
D03*
X97159Y372725D02*
D03*
X258000Y286000D02*
D03*
X311000Y256000D02*
D03*
X329250Y262500D02*
D03*
X198000Y312000D02*
D03*
X80000Y135000D02*
D03*
X90190Y140212D02*
D03*
X85190Y150212D02*
D03*
X95190D02*
D03*
X80000Y115000D02*
D03*
X90000D02*
D03*
X100000D02*
D03*
X99159Y123725D02*
D03*
Y133725D02*
D03*
X78000Y123000D02*
D03*
X84980Y126873D02*
D03*
X78000Y145000D02*
D03*
Y373000D02*
D03*
X80190Y385212D02*
D03*
X89980Y366873D02*
D03*
X79980Y361873D02*
D03*
X100000Y363000D02*
D03*
X95000Y355000D02*
D03*
X85000D02*
D03*
X90190Y390212D02*
D03*
X166750Y252000D02*
D03*
Y245000D02*
D03*
X316000Y320000D02*
D03*
X324000D02*
D03*
X295000Y367000D02*
D03*
X286000Y406000D02*
D03*
X362000Y211000D02*
D03*
X362059Y231505D02*
D03*
X375000Y244000D02*
D03*
X397000Y211000D02*
D03*
Y232000D02*
D03*
X372000Y280000D02*
D03*
X396000Y315000D02*
D03*
X395000Y297000D02*
D03*
X362000D02*
D03*
Y315000D02*
D03*
X136000Y191000D02*
D03*
Y209000D02*
D03*
X186000Y426000D02*
D03*
Y435000D02*
D03*
Y443000D02*
D03*
X299000Y234000D02*
D03*
X105500Y288500D02*
D03*
X107000Y303000D02*
D03*
X288000Y306000D02*
D03*
X260000Y261000D02*
D03*
Y239000D02*
D03*
X238000D02*
D03*
X239000Y261000D02*
D03*
X306000Y314000D02*
D03*
X373000Y135000D02*
D03*
X136280Y200000D02*
D03*
X297250Y167250D02*
D03*
X231000Y214000D02*
D03*
X190000Y233000D02*
D03*
X216000Y251000D02*
D03*
X134565Y370950D02*
D03*
X217000Y261000D02*
D03*
X279000Y219000D02*
D03*
X249000Y206000D02*
D03*
X138000Y131000D02*
D03*
X244000Y314000D02*
D03*
X250000Y168000D02*
D03*
X190000Y131000D02*
D03*
X273000Y170000D02*
D03*
X192000Y371000D02*
D03*
X245000Y302000D02*
D03*
X213000Y303000D02*
D03*
X222000Y286000D02*
D03*
X341000Y198000D02*
D03*
X136000Y169000D02*
D03*
X112000Y248000D02*
D03*
X109000Y341000D02*
D03*
X352000Y365000D02*
D03*
X385000Y280000D02*
D03*
X386000Y244000D02*
D03*
X93000Y398000D02*
D03*
X282000Y360000D02*
D03*
X107500Y318000D02*
D03*
D29*
X189750Y131250D02*
Y179500D01*
X105000Y410000D02*
X140000D01*
X258000Y295000D02*
X328000Y365000D01*
X258000Y286000D02*
Y295000D01*
X215000Y226000D02*
X270000D01*
X179000Y262000D02*
X215000Y226000D01*
X121000Y261000D02*
X163000Y262000D01*
X179000D01*
X140000Y410000D02*
X164000Y386000D01*
X328000Y365000D02*
X352000D01*
X341000Y167000D02*
Y198000D01*
Y167000D02*
X373000Y135000D01*
X278000Y234000D02*
X294000D01*
X270000Y226000D02*
X278000Y234000D01*
X124000Y145000D02*
Y224142D01*
X129858Y230000D02*
X187000D01*
X124000Y224142D02*
X129858Y230000D01*
X187000D02*
X190000Y233000D01*
X124000Y145000D02*
X138000Y131000D01*
X226000Y214000D02*
X231000D01*
X213000Y201000D02*
X226000Y214000D01*
X200000Y261000D02*
X217000D01*
X134565Y326435D02*
Y370950D01*
Y326435D02*
X200000Y261000D01*
X112000Y248000D02*
X121000Y261000D01*
X148000Y169000D02*
X180000Y201000D01*
X213000D01*
X192000Y318000D02*
Y371000D01*
Y318000D02*
X198000Y312000D01*
X219000Y283000D02*
X222000Y286000D01*
X197000Y283000D02*
X219000D01*
X164000Y316000D02*
X197000Y283000D01*
X164000Y316000D02*
Y386000D01*
X136000Y169000D02*
X148000D01*
M02*
