M48
;Layer_Color=9474304
;FILE_FORMAT=4:4
METRIC,LZ
;TYPE=PLATED
T1F00S00C0.3000
T2F00S00C1.5000
%
T01
X0008Y00115
X00078Y00123
X0008498Y00126873
X0008Y00135
X00078Y00145
X0008519Y00150212
X00085Y00355
X0007998Y00361873
X00078Y00373
X00086Y00376
X0008019Y00385212
X00083Y00394
X0009019Y00390212
X00093Y00398
X00102Y00397
X00102027Y00388917
X00096189Y00381212
X00097159Y00372725
X001Y00363
X00095Y00355
X0008998Y00366873
X00109Y00341
X001075Y00318
X00107Y00303
X001055Y002885
X00112Y00248
X0016675Y00245
Y00252
X0019Y00233
X00216Y00251
X00217Y00261
X00239
X0026
Y00239
X00238
X00231Y00214
X00249Y00206
X0025Y00168
X00227Y0016925
X00273Y0017
X0029725Y0016725
X00299Y00234
X00311Y00256
X0032925Y002625
X003295Y0027
X0033Y00247
X00330139Y00239637
X0034125Y0022125
X003415Y00213
X00341Y00198
X00362Y00211
X00362059Y00231505
X00375Y00244
X00386
X00397Y00232
Y00211
X00385Y0028
X00372
X00362Y00297
Y00315
X00396
X00395Y00297
X00328624Y0029764
X00328657Y00306455
X00324Y0032
X00316
X00306Y00314
X00288Y00306
X00245Y00302
X00244Y00314
X00258Y00286
X00222
X00213Y00303
X00198Y00312
X00192Y00371
X00134565Y0037095
X00104Y00409
X00186Y00426
Y00435
Y00443
X00286Y00406
X00295Y00367
X00282Y0036
X00352Y00365
X00279Y00219
X0018975Y001795
X0019Y00131
X00138
X00136Y00169
Y00191
X0013628Y002
X00136Y00209
X00103Y00155
X00102Y00145
X0009519Y00150212
X00092Y00157
X0009019Y00140212
X00099159Y00133725
Y00123725
X001Y00115
X0009
X00373Y00135
T02
X00046Y00199
Y00288
X0045Y003
Y0036
Y002
Y0014
M30
